$MeshFormat
4.1 0 8
$EndMeshFormat
$PhysicalNames
4
1 1 "Inlet"
1 2 "Walls"
1 3 "Outlet"
2 10 "FluidDomain"
$EndPhysicalNames
$Entities
4 4 1 0
1 0 0 0 0 
2 10 0 0 0 
3 10 1 0 0 
4 0 1 0 0 
1 0 0 0 10 0 0 1 2 2 1 -2 
2 10 0 0 10 1 0 1 3 2 2 -3 
3 0 1 0 10 1 0 1 2 2 3 -4 
4 0 0 0 0 1 0 1 1 2 4 -1 
1 0 0 0 10 1 0 1 10 4 1 2 3 4 
$EndEntities
$Nodes
9 1304 1 1304
0 1 0 1
1
0 0 0
0 2 0 1
2
10 0 0
0 3 0 1
3
10 1 0
0 4 0 1
4
0 1 0
1 1 0 99
5
6
7
8
9
10
11
12
13
14
15
16
17
18
19
20
21
22
23
24
25
26
27
28
29
30
31
32
33
34
35
36
37
38
39
40
41
42
43
44
45
46
47
48
49
50
51
52
53
54
55
56
57
58
59
60
61
62
63
64
65
66
67
68
69
70
71
72
73
74
75
76
77
78
79
80
81
82
83
84
85
86
87
88
89
90
91
92
93
94
95
96
97
98
99
100
101
102
103
0.09999999999992586 0 0
0.199999999999856 0 0
0.2999999999997771 0 0
0.3999999999996677 0 0
0.4999999999995511 0 0
0.5999999999994683 0 0
0.6999999999993983 0 0
0.7999999999993285 0 0
0.8999999999992587 0 0
0.9999999999991889 0 0
1.099999999999119 0 0
1.199999999999034 0 0
1.299999999998853 0 0
1.399999999998577 0 0
1.499999999998285 0 0
1.599999999997993 0 0
1.699999999997701 0 0
1.799999999997409 0 0
1.899999999997117 0 0
1.999999999996825 0 0
2.099999999996534 0 0
2.199999999996241 0 0
2.299999999995949 0 0
2.399999999995658 0 0
2.499999999995366 0 0
2.599999999995074 0 0
2.699999999994782 0 0
2.79999999999449 0 0
2.899999999994198 0 0
2.999999999993906 0 0
3.099999999993615 0 0
3.199999999993323 0 0
3.299999999993031 0 0
3.399999999992738 0 0
3.499999999992446 0 0
3.599999999992155 0 0
3.699999999991863 0 0
3.799999999991571 0 0
3.899999999991279 0 0
3.999999999991022 0 0
4.099999999991035 0 0
4.199999999991188 0 0
4.299999999991339 0 0
4.399999999991492 0 0
4.499999999991643 0 0
4.599999999991795 0 0
4.699999999991947 0 0
4.799999999992099 0 0
4.899999999992251 0 0
4.999999999992403 0 0
5.099999999992555 0 0
5.199999999992706 0 0
5.299999999992858 0 0
5.39999999999301 0 0
5.499999999993163 0 0
5.599999999993315 0 0
5.699999999993466 0 0
5.799999999993618 0 0
5.899999999993771 0 0
5.999999999993922 0 0
6.099999999994075 0 0
6.199999999994227 0 0
6.299999999994378 0 0
6.39999999999453 0 0
6.499999999994682 0 0
6.599999999994833 0 0
6.699999999994986 0 0
6.799999999995138 0 0
6.899999999995289 0 0
6.999999999995441 0 0
7.099999999995594 0 0
7.199999999995747 0 0
7.299999999995897 0 0
7.39999999999605 0 0
7.499999999996202 0 0
7.599999999996353 0 0
7.699999999996505 0 0
7.799999999996658 0 0
7.899999999996808 0 0
7.999999999996961 0 0
8.099999999997113 0 0
8.199999999997264 0 0
8.299999999997416 0 0
8.399999999997569 0 0
8.499999999997721 0 0
8.599999999997873 0 0
8.699999999998024 0 0
8.799999999998176 0 0
8.899999999998329 0 0
8.999999999998479 0 0
9.099999999998632 0 0
9.199999999998784 0 0
9.299999999998935 0 0
9.399999999999087 0 0
9.49999999999924 0 0
9.599999999999392 0 0
9.699999999999545 0 0
9.799999999999697 0 0
9.899999999999848 0 0
1 2 0 9
104
105
106
107
108
109
110
111
112
10 0.09999999999981468 0
10 0.1999999999995579 0
10 0.2999999999992664 0
10 0.399999999998975 0
10 0.4999999999986943 0
10 0.5999999999989468 0
10 0.69999999999921 0
10 0.7999999999994734 0
10 0.8999999999997368 0
1 3 0 99
113
114
115
116
117
118
119
120
121
122
123
124
125
126
127
128
129
130
131
132
133
134
135
136
137
138
139
140
141
142
143
144
145
146
147
148
149
150
151
152
153
154
155
156
157
158
159
160
161
162
163
164
165
166
167
168
169
170
171
172
173
174
175
176
177
178
179
180
181
182
183
184
185
186
187
188
189
190
191
192
193
194
195
196
197
198
199
200
201
202
203
204
205
206
207
208
209
210
211
9.9 1 0
9.799999999999999 1 0
9.699999999999999 1 0
9.6 1 0
9.5 1 0
9.399999999999999 1 0
9.299999999999999 1 0
9.199999999999999 1 0
9.099999999999998 1 0
8.999999999999998 1 0
8.899999999999999 1 0
8.799999999999999 1 0
8.699999999999999 1 0
8.599999999999998 1 0
8.499999999999998 1 0
8.399999999999999 1 0
8.299999999999997 1 0
8.199999999999998 1 0
8.099999999999998 1 0
7.999999999999996 1 0
7.899999999999997 1 0
7.799999999999996 1 0
7.699999999999996 1 0
7.599999999999995 1 0
7.499999999999995 1 0
7.399999999999995 1 0
7.299999999999995 1 0
7.199999999999994 1 0
7.099999999999993 1 0
6.999999999999993 1 0
6.899999999999993 1 0
6.799999999999994 1 0
6.699999999999993 1 0
6.599999999999993 1 0
6.499999999999994 1 0
6.399999999999993 1 0
6.299999999999994 1 0
6.199999999999994 1 0
6.099999999999994 1 0
5.999999999999995 1 0
5.899999999999994 1 0
5.799999999999994 1 0
5.699999999999994 1 0
5.599999999999994 1 0
5.499999999999995 1 0
5.399999999999995 1 0
5.299999999999995 1 0
5.199999999999995 1 0
5.099999999999994 1 0
4.999999999999996 1 0
4.899999999999995 1 0
4.799999999999995 1 0
4.699999999999996 1 0
4.599999999999996 1 0
4.499999999999995 1 0
4.399999999999996 1 0
4.299999999999996 1 0
4.199999999999996 1 0
4.099999999999996 1 0
3.999999999999996 1 0
3.899999999999996 1 0
3.799999999999997 1 0
3.699999999999997 1 0
3.599999999999996 1 0
3.499999999999996 1 0
3.399999999999997 1 0
3.299999999999996 1 0
3.199999999999998 1 0
3.099999999999997 1 0
2.999999999999997 1 0
2.899999999999996 1 0
2.799999999999997 1 0
2.699999999999997 1 0
2.599999999999997 1 0
2.499999999999996 1 0
2.399999999999998 1 0
2.299999999999997 1 0
2.199999999999998 1 0
2.099999999999999 1 0
1.999999999999998 1 0
1.899999999999999 1 0
1.799999999999999 1 0
1.699999999999999 1 0
1.599999999999998 1 0
1.499999999999998 1 0
1.399999999999999 1 0
1.299999999999999 1 0
1.199999999999999 1 0
1.099999999999998 1 0
0.9999999999999982 1 0
0.9000000000000004 1 0
0.7999999999999989 1 0
0.6999999999999993 1 0
0.6000000000000014 1 0
0.5 1 0
0.3999999999999986 1 0
0.2999999999999989 1 0
0.1999999999999993 1 0
0.09999999999999964 1 0
1 4 0 9
212
213
214
215
216
217
218
219
220
0 0.8999999999995836 0
0 0.7999999999999998 0
0 0.7000000000006934 0
0 0.6000000000013869 0
0 0.5000000000020587 0
0 0.4000000000016644 0
0 0.3000000000012483 0
0 0.2000000000008322 0
0 0.100000000000416 0
2 1 0 1084
221
222
223
224
225
226
227
228
229
230
231
232
233
234
235
236
237
238
239
240
241
242
243
244
245
246
247
248
249
250
251
252
253
254
255
256
257
258
259
260
261
262
263
264
265
266
267
268
269
270
271
272
273
274
275
276
277
278
279
280
281
282
283
284
285
286
287
288
289
290
291
292
293
294
295
296
297
298
299
300
301
302
303
304
305
306
307
308
309
310
311
312
313
314
315
316
317
318
319
320
321
322
323
324
325
326
327
328
329
330
331
332
333
334
335
336
337
338
339
340
341
342
343
344
345
346
347
348
349
350
351
352
353
354
355
356
357
358
359
360
361
362
363
364
365
366
367
368
369
370
371
372
373
374
375
376
377
378
379
380
381
382
383
384
385
386
387
388
389
390
391
392
393
394
395
396
397
398
399
400
401
402
403
404
405
406
407
408
409
410
411
412
413
414
415
416
417
418
419
420
421
422
423
424
425
426
427
428
429
430
431
432
433
434
435
436
437
438
439
440
441
442
443
444
445
446
447
448
449
450
451
452
453
454
455
456
457
458
459
460
461
462
463
464
465
466
467
468
469
470
471
472
473
474
475
476
477
478
479
480
481
482
483
484
485
486
487
488
489
490
491
492
493
494
495
496
497
498
499
500
501
502
503
504
505
506
507
508
509
510
511
512
513
514
515
516
517
518
519
520
521
522
523
524
525
526
527
528
529
530
531
532
533
534
535
536
537
538
539
540
541
542
543
544
545
546
547
548
549
550
551
552
553
554
555
556
557
558
559
560
561
562
563
564
565
566
567
568
569
570
571
572
573
574
575
576
577
578
579
580
581
582
583
584
585
586
587
588
589
590
591
592
593
594
595
596
597
598
599
600
601
602
603
604
605
606
607
608
609
610
611
612
613
614
615
616
617
618
619
620
621
622
623
624
625
626
627
628
629
630
631
632
633
634
635
636
637
638
639
640
641
642
643
644
645
646
647
648
649
650
651
652
653
654
655
656
657
658
659
660
661
662
663
664
665
666
667
668
669
670
671
672
673
674
675
676
677
678
679
680
681
682
683
684
685
686
687
688
689
690
691
692
693
694
695
696
697
698
699
700
701
702
703
704
705
706
707
708
709
710
711
712
713
714
715
716
717
718
719
720
721
722
723
724
725
726
727
728
729
730
731
732
733
734
735
736
737
738
739
740
741
742
743
744
745
746
747
748
749
750
751
752
753
754
755
756
757
758
759
760
761
762
763
764
765
766
767
768
769
770
771
772
773
774
775
776
777
778
779
780
781
782
783
784
785
786
787
788
789
790
791
792
793
794
795
796
797
798
799
800
801
802
803
804
805
806
807
808
809
810
811
812
813
814
815
816
817
818
819
820
821
822
823
824
825
826
827
828
829
830
831
832
833
834
835
836
837
838
839
840
841
842
843
844
845
846
847
848
849
850
851
852
853
854
855
856
857
858
859
860
861
862
863
864
865
866
867
868
869
870
871
872
873
874
875
876
877
878
879
880
881
882
883
884
885
886
887
888
889
890
891
892
893
894
895
896
897
898
899
900
901
902
903
904
905
906
907
908
909
910
911
912
913
914
915
916
917
918
919
920
921
922
923
924
925
926
927
928
929
930
931
932
933
934
935
936
937
938
939
940
941
942
943
944
945
946
947
948
949
950
951
952
953
954
955
956
957
958
959
960
961
962
963
964
965
966
967
968
969
970
971
972
973
974
975
976
977
978
979
980
981
982
983
984
985
986
987
988
989
990
991
992
993
994
995
996
997
998
999
1000
1001
1002
1003
1004
1005
1006
1007
1008
1009
1010
1011
1012
1013
1014
1015
1016
1017
1018
1019
1020
1021
1022
1023
1024
1025
1026
1027
1028
1029
1030
1031
1032
1033
1034
1035
1036
1037
1038
1039
1040
1041
1042
1043
1044
1045
1046
1047
1048
1049
1050
1051
1052
1053
1054
1055
1056
1057
1058
1059
1060
1061
1062
1063
1064
1065
1066
1067
1068
1069
1070
1071
1072
1073
1074
1075
1076
1077
1078
1079
1080
1081
1082
1083
1084
1085
1086
1087
1088
1089
1090
1091
1092
1093
1094
1095
1096
1097
1098
1099
1100
1101
1102
1103
1104
1105
1106
1107
1108
1109
1110
1111
1112
1113
1114
1115
1116
1117
1118
1119
1120
1121
1122
1123
1124
1125
1126
1127
1128
1129
1130
1131
1132
1133
1134
1135
1136
1137
1138
1139
1140
1141
1142
1143
1144
1145
1146
1147
1148
1149
1150
1151
1152
1153
1154
1155
1156
1157
1158
1159
1160
1161
1162
1163
1164
1165
1166
1167
1168
1169
1170
1171
1172
1173
1174
1175
1176
1177
1178
1179
1180
1181
1182
1183
1184
1185
1186
1187
1188
1189
1190
1191
1192
1193
1194
1195
1196
1197
1198
1199
1200
1201
1202
1203
1204
1205
1206
1207
1208
1209
1210
1211
1212
1213
1214
1215
1216
1217
1218
1219
1220
1221
1222
1223
1224
1225
1226
1227
1228
1229
1230
1231
1232
1233
1234
1235
1236
1237
1238
1239
1240
1241
1242
1243
1244
1245
1246
1247
1248
1249
1250
1251
1252
1253
1254
1255
1256
1257
1258
1259
1260
1261
1262
1263
1264
1265
1266
1267
1268
1269
1270
1271
1272
1273
1274
1275
1276
1277
1278
1279
1280
1281
1282
1283
1284
1285
1286
1287
1288
1289
1290
1291
1292
1293
1294
1295
1296
1297
1298
1299
1300
1301
1302
1303
1304
1.449999999998431 0.08660254037819107 0
1.741171811981702 0.0953010884976942 0
2.063127296959811 0.09504257930110135 0
2.357944944492069 0.0895274548887493 0
2.652904048110907 0.08929309814530671 0
2.947796063091998 0.08920679865304849 0
3.247942156031282 0.08143573139771071 0
3.552348925170723 0.06794975885701666 0
3.849351566901489 0.07621291138498182 0
1.149999999999076 0.08660254037832855 0
0.5499999999995091 0.08660254037836342 0
0.8558450800688937 0.09191010496227675 0
9.459323932240839 0.9099087214078776 0
9.163700601294195 0.904988679916937 0
8.841750564008656 0.9046611001318965 0
8.549999999999997 0.9133974596215565 0
8.250000000000007 0.9133974596215565 0
7.958616428982891 0.904685154052376 0
7.636662788445432 0.9049689591648165 0
7.341860364113242 0.910444922527574 0
7.046902079667257 0.9107314531935362 0
6.752268925371173 0.9103357901877822 0
6.443527977272645 0.9287387643302119 0
6.147478753383346 0.9320573093587801 0
5.855637286201273 0.9286450107925688 0
5.546771235380408 0.9102857317462517 0
5.251556574619157 0.9114107174591581 0
4.957177159024278 0.9083443042180117 0
4.662343157335401 0.9049133843355401 0
4.340382312644098 0.9047493992916544 0
4.049999999999995 0.9133974596215565 0
3.643335264469535 0.9045542655888386 0
3.349999999999996 0.9133974596215568 0
3.049999999999998 0.9133974596215565 0
2.760194854500866 0.9047854865667467 0
2.435984807359231 0.903295279847405 0
2.14358640383848 0.9084224749659877 0
1.848823367441403 0.9113637444781507 0
1.560614057320493 0.9033509501834558 0
4.249999999991219 0.08660254037855183 0
4.549454200010577 0.0846952927540337 0
4.849895300112986 0.1010148636583774 0
1.247440071351183 0.9216834187963472 0
5.151850784611437 0.07457578439086843 0
5.439863788009533 0.08982608049709817 0
0.647984321154599 0.9206064735987405 0
5.734076004233247 0.0968458944573435 0
0.9529911496665154 0.9320777003494691 0
6.049999999994029 0.08660254037854095 0
6.34962590025646 0.09002599413346349 0
6.645387070151679 0.09138754920687123 0
6.93668227262052 0.09667277844492507 0
7.249999999995783 0.08660254037853565 0
7.552362660830018 0.088921395058013 0
7.851037369268648 0.08865332966333744 0
8.144711937122368 0.09554223163039111 0
8.450856968283862 0.07452056895355526 0
8.746837179311338 0.0679144454052369 0
9.048485467316347 0.07438844154395322 0
9.351248921028958 0.1010082538957942 0
0.08660254037850353 0.5500000000013682 0
9.913397459621804 0.4499999999988346 0
0.3489733690054236 0.9111203626754892 0
9.649999999999469 0.08660254037857586 0
0.08660254037866967 0.3500000000012704 0
9.913397459621333 0.6499999999990784 0
4.049999999991055 0.08660254037840817 0
3.849999999999998 0.9133974596215573 0
9.652250104876394 0.9251776079890768 0
0.3478891619419031 0.1004097739635109 0
0.08613067098746549 0.7491826982397903 0
9.921518442999528 0.2532355563543009 0
0.0846772045058452 0.1504237369286875 0
9.923407299061632 0.849539991209046 0
0.1591825619067664 0.9094302752564345 0
9.84940676830044 0.08288993238496412 0
0.0862816510664718 0.2500706228223284 0
0.1731515992051638 0.3000117704712273 0
0.1731961671653414 0.4000019617461382 0
0.259797221945038 0.3500022887034011 0
0.2598076211360124 0.4500000000008182 0
0.3464084283157799 0.4000003814510336 0
0.3464098726479386 0.5000000635758051 0
0.4328520491613082 0.4502777491445711 0
0.432985878293357 0.550046302120027 0
0.5194236804954671 0.5003316835173401 0
0.5196651921887697 0.6000868289639124 0
0.6062062349006361 0.5500488735458081 0
0.6049873182331144 0.4497427947359492 0
0.6926133210003975 0.4999652780465945 0
0.6928139791258396 0.5999951791083848 0
0.7793873057514973 0.5499934095252855 0
0.7793824367924556 0.449993114594866 0
0.8660127397399503 0.4999977540193389 0
0.8660165553413727 0.3999984781017831 0
0.9526243587483478 0.4499993720193596 0
0.9526252359200296 0.5499995210056009 0
1.039229435598537 0.4999998155031501 0
1.039230165053167 0.5999999435794297 0
1.125832796848095 0.5499999598459009 0
1.125832812083939 0.4499999625570891 0
1.212435491813631 0.4999999870658326 0
1.212435517577909 0.3999999916026172 0
1.299038085475696 0.4499999964432773 0
1.299038090062521 0.5499999972500055 0
1.385640640085805 0.4999999989472179 0
1.3856406434858 0.5999999995453571 0
1.472243185010354 0.5499999997468941 0
1.472243185201132 0.4499999997806329 0
1.558845726369128 0.4999999999192642 0
1.558845726532272 0.3999999999481606 0
1.645448267069559 0.4499999999757904 0
1.645448267096327 0.5499999999803153 0
1.732050807532624 0.4999999999903519 0
1.73205080755319 0.5999999999937921 0
1.818653347938271 0.5499999999948089 0
1.818653347939107 0.4499999999951472 0
1.905255888322322 0.499999999995644 0
1.905255888323411 0.599999999995655 0
1.991858428702696 0.5499999999956426 0
1.991858428702577 0.4499999999958151 0
2.078460969081392 0.4999999999955315 0
2.078460969081169 0.3999999999957021 0
2.165063509459704 0.4499999999953619 0
2.16506350946004 0.5499999999952122 0
2.251666049838223 0.4999999999950152 0
2.251666049838566 0.5999999999948752 0
2.338268590216726 0.5499999999946629 0
2.338268590216408 0.4499999999948031 0
2.424871130594884 0.499999999994449 0
2.424871130594549 0.39999999999461 0
2.511473670973038 0.4499999999942422 0
2.511473670973365 0.5499999999940894 0
2.598076211351525 0.4999999999938774 0
2.598076211351851 0.59999999999374 0
2.684678751730007 0.5499999999935169 0
2.68467875172968 0.4499999999936629 0
2.771281292108157 0.4999999999932957 0
2.771281292107819 0.399999999993456 0
2.857883832486295 0.4499999999930804 0
2.857883832486656 0.5499999999929276 0
2.944486372864783 0.4999999999927028 0
2.944486372864437 0.3999999999928646 0
3.031088913242913 0.4499999999924854 0
3.031088913243266 0.5499999999923293 0
3.117691453621404 0.4999999999921064 0
3.115468031761609 0.59614892036356 0
3.201958458146251 0.5459547332303338 0
3.203904738023925 0.4493257888649826 0
3.288477436862869 0.4958100001867831 0
3.290428475462547 0.3991892981697216 0
3.377017882017789 0.4491665497201525 0
3.367023878183535 0.5615007289906575 0
3.462275550249442 0.5017778797789429 0
3.464101615135037 0.5999999999907277 0
3.550399811365641 0.550296313288501 0
3.550349087340678 0.4503456988383077 0
3.637250623415158 0.5000545928597742 0
3.637238172449568 0.4000667152765865 0
3.723894403422138 0.4500144414371046 0
3.723897418715927 0.5500115057093173 0
3.810508603981192 0.5000030889380072 0
3.03108891324256 0.3499999999926562 0
0.9526258718531333 0.3499996416861187 0
3.810509278278264 0.6000024324341582 0
3.897113641903129 0.5500006572979316 0
3.895568769566013 0.4529111988363337 0
3.981433300318204 0.5039941902317382 0
3.98333615203681 0.6006658079141372 0
4.069875354040878 0.5507766663499392 0
4.060909455748342 0.4375242856168576 0
4.155279607198745 0.4980501586531997 0
4.156574209044419 0.5998044708259765 0
4.243192801860152 0.5496424382383702 0
4.24319547726602 0.4496154328071644 0
4.330127018918472 0.4999999999875976 0
4.327537658993409 0.4043258339191242 0
4.416297999309278 0.4507209723091814 0
4.416657632632529 0.5501201620409117 0
4.503248185233359 0.5001401890495215 0
4.503306126157982 0.600043391839632 0
4.589916325394036 0.5500305968058065 0
4.589917601869958 0.4500284643002295 0
4.676537180432251 0.4999999999862637 0
4.676534340734596 0.4000047440385369 0
4.763139247527626 0.450000790661317 0
4.763139641930403 0.5500001317651617 0
4.849742169161911 0.500000153728046 0
4.849742166970412 0.4000001573885815 0
4.936344801567395 0.4499999999852905 0
4.936344786229897 0.5500000256090272 0
5.022947339389712 0.5000000042555908 0
5.022947338964029 0.6000000049673766 0
5.109549882084362 0.5500000003860867 0
5.109549881858187 0.4500000007633258 0
5.196152422585184 0.5000000001810156 0
5.196152422605248 0.4000000001468921 0
5.282754963071849 0.4499999999996001 0
5.282754963060362 0.5500000000193968 0
5.369357503454717 0.4999999999921976 0
5.369357503455785 0.5999999999910203 0
5.45596004383802 0.5499999999840777 0
5.45596004383715 0.4499999999849241 0
5.542562584216474 0.4999999999834546 0
5.542562584216143 0.399999999983402 0
5.629165124594963 0.4499999999827763 0
5.62916512459528 0.5499999999828387 0
5.715767664973578 0.4999999999824799 0
5.715767664973928 0.5999999999824872 0
5.802370205352199 0.5499999999821712 0
5.80237020535185 0.4499999999821613 0
5.88897274573047 0.499999999981855 0
5.888972745730819 0.599999999981863 0
5.975575286109091 0.5499999999815457 0
5.975575286108739 0.4499999999815479 0
6.062177826487362 0.4999999999812418 0
6.064869438576901 0.4046620088751481 0
6.149228968880615 0.4507770014632668 0
6.148855133868477 0.550129500228001 0
6.235470135413831 0.5001510836022134 0
6.23538993535667 0.6000121730278474 0
6.322001157003147 0.5500272094251476 0
6.322002603880827 0.4500297154914136 0
6.408593465607574 0.5000094874727022 0
6.408591760311584 0.4000065338140093 0
6.495192070032293 0.4500026702008572 0
6.495191698256313 0.5500020262653829 0
6.581793520679613 0.500000782730579 0
6.581793339058067 0.6000004681522513 0
6.668395729506868 0.5500002084664867 0
6.668395704518276 0.4500001651855601 0
6.754998185473626 0.5000000622611555 0
6.754998171404683 0.4000000378936378 0
6.841600699534663 0.4500000166780734 0
6.841600697493581 0.5500000131422002 0
6.9282032331454 0.5000000049554492 0
4.936344785863962 0.3500000262191191 0
6.928203232017787 0.600000003001725 0
7.014805771420315 0.5500000013113889 0
7.014662538572949 0.4502480873163593 0
7.101384439144164 0.5000413480896189 0
7.101404332509959 0.6000068915518741 0
7.188006209673386 0.5500080399250392 0
7.188006099137233 0.4500082313206216 0
7.274613391785601 0.4999999999770415 0
7.277036488102764 0.404199669663218 0
7.361619781550118 0.4506999449244407 0
7.361283240395253 0.5501166574680225 0
7.447896998812029 0.5001361003829421 0
7.447824799529008 0.6000109658022236 0
7.534435155130396 0.5500245110148638 0
7.534436457667221 0.4500267685503473 0
7.62102848445867 0.500008546578006 0
7.621026949283314 0.4000058858385737 0
7.707627481534908 0.450002405386369 0
7.707627146847424 0.5500018253110424 0
7.794229040894045 0.5000007050996432 0
7.794228877391147 0.6000004217185606 0
7.88083128279693 0.5500001877862282 0
7.880831260301171 0.4500001487975716 0
7.967433747184595 0.5000000560802939 0
7.967433734519141 0.4000000341293851 0
8.054036263871041 0.4500000150177564 0
8.054036262033611 0.5500000118325152 0
8.140638798156946 0.500000004457632 0
8.140638797447426 0.4000000032285481 0
8.227241336692423 0.450000001263394 0
8.227241336503852 0.5500000009359232 0
8.313843876543498 0.5000000003486937 0
8.311729806886452 0.5963383242912076 0
8.398586578791207 0.5467786662116108 0
8.400136443755574 0.4494631110753704 0
8.485179828896184 0.4967625749859222 0
8.486685773560605 0.3993709476586625 0
8.573279445510341 0.4493555870889634 0
8.56766654995301 0.5627452312832822 0
8.659194537930508 0.50201680304337 0
8.660254037841064 0.5999999999721389 0
8.746679994900962 0.5503361338170243 0
8.746650564347547 0.4503921561245819 0
8.833459118597599 0.4999999999715251 0
8.833424782952028 0.4000653593303343 0
8.920055936368319 0.4500108931977237 0
8.920060705208293 0.5500018155089567 0
9.00666308662522 0.5000021180983364 0
9.006663854938616 0.6000006555817892 0
9.093266496875517 0.5500004622603871 0
9.093266513801597 0.4500004300402027 0
9.179869259773115 0.5000000386851287 0
9.179869239066109 0.4000000781010895 0
9.266471810259105 0.4500000194443055 0
9.266471815395187 0.550000009668274 0
9.353074358314039 0.5000000048318024 0
9.353074358737079 0.4000000040257792 0
9.439676900848125 0.4500000007277235 0
9.439676900754808 0.550000000906107 0
9.526279441549416 0.5000000001131626 0
9.439676900824569 0.3500000007717678 0
9.526279441530903 0.6000000001491316 0
6.149332725398175 0.3577898348367868 0
8.227241336384916 0.3500000007310761 0
5.986985696773859 0.3457034112553262 0
9.612881981989267 0.5499999999962379 0
9.61288198198833 0.4499999999973413 0
7.362241656115369 0.3558295623464623 0
0.3464056427706567 0.6000077276165321 0
0.7815687601663088 0.3537296254828526 0
2.165063509459406 0.3499999999955345 0
8.573528958215995 0.3497877557728613 0
5.975575286109439 0.6499999999815431 0
7.193762738996251 0.3455071395115851 0
3.377340866146892 0.3497259746425885 0
0.779415879813868 0.6499980981050567 0
1.991858428702726 0.349999999996057 0
5.282754963063041 0.3500000000137105 0
7.188009414698836 0.6500024885643225 0
1.991858428703543 0.6499999999956148 0
6.495191414039688 0.3500015339889282 0
1.299038094356051 0.3499999980063299 0
8.400959497526497 0.6494520560909226 0
3.200754395380331 0.6478443552285573 0
7.707626890984223 0.3500013818544799 0
5.109549881787906 0.6500000008819886 0
2.511473670972703 0.3499999999944088 0
4.407104033815709 0.3417060197319625 0
8.920054982600067 0.3500127087354799 0
6.321989237205277 0.6500065637290205 0
3.7238953435543 0.3500135261123557 0
1.125833024920312 0.649999999998257 0
8.224774921565256 0.6457280449486316 0
5.629165124594569 0.3499999999828297 0
0.4306760102003682 0.3544300987546697 0
3.028494921073456 0.6455070737590455 0
7.534424424454038 0.6500059127869016 0
2.338268590217058 0.6499999999945398 0
4.936344798514776 0.6500000050863449 0
6.841600695148101 0.3500000090809453 0
4.243411244241001 0.6499078181692791 0
9.43967690114944 0.6500000001555857 0
1.645448267122971 0.3499999999853985 0
8.746827147666625 0.6500560222793459 0
4.244364566551761 0.3606400780922995 0
3.550653431488948 0.6500493855400337 0
1.645448267172209 0.649999999993502 0
5.455960043837996 0.6499999999847241 0
6.841600691451511 0.6500000026764193 0
7.880831233051325 0.6500001015673711 0
2.684678751730343 0.6499999999933931 0
4.58992725869143 0.6500123314319081 0
9.093266641854441 0.6500001862874484 0
9.612881981985945 0.6500000000032408 0
9.006664125639269 0.7000001402922003 0
4.503326540529349 0.7000092872032599 0
2.599117812987555 0.6981958930398764 0
7.794228684382067 0.7000000871978608 0
6.928203230415849 0.7000000002264726 0
5.369357503459669 0.6999999999851535 0
1.73205080756891 0.699999999996394 0
3.466504189145303 0.7000082309155548 0
8.664310755703443 0.7000093370233744 0
1.558845726753454 0.2999999999872917 0
4.156845110926167 0.6999520481581049 0
6.75499815403844 0.3000000078150383 0
2.251666049838891 0.699999999994763 0
7.447820095629646 0.7000028130825284 0
5.542562584215937 0.2999999999831487 0
1.039230431293966 0.6999999905952885 0
3.637292959864569 0.300013373558614 0
6.235384710193981 0.7000031227799626 0
8.833452283260145 0.3000130113253937 0
8.140638795955086 0.3000000006426992 0
2.424871130594236 0.2999999999947889 0
2.944486372864107 0.2999999999930472 0
7.621024252180543 0.3000012112661224 0
4.849742242868155 0.3000000305917452 0
4.934717190958724 0.2528191039048266 0
1.212435555457692 0.2999999982671105 0
9.35307436044207 0.3000000007794768 0
9.438008109530251 0.2528904320319414 0
1.299038105675912 0.2499999999981703 0
6.410987866864805 0.3003253690823829 0
6.495590655799543 0.2500544838316743 0
5.196152422683017 0.300000000016362 0
5.282754963074308 0.2499999999943049 0
0.6928802078565208 0.6999780010010648 0
0.7794316802795587 0.7499960165171069 0
3.290792156456636 0.2998192121300417 0
3.377455310333863 0.249924197789853 0
5.88897274573116 0.6999999999818585 0
5.975575286109791 0.7499999999815473 0
9.69948452237958 0.5999999999736345 0
9.699484522379237 0.6999999999749764 0
8.486968003288345 0.2998597838871196 0
8.573617581954661 0.2499412565915852 0
3.031088913242212 0.2495630047995769 0
7.707626158588654 0.2500001124794229 0
2.511473670972364 0.2499999999946036 0
8.225752531611588 0.2525786852013325 0
9.526001309601504 0.3004817387798622 0
2.684678751729336 0.3499999999938319 0
2.771281292107494 0.299999999993635 0
6.668395674248645 0.6500001127558547 0
6.581793124660615 0.7000000968043684 0
4.589931327073083 0.3500055347142471 0
4.676536154985255 0.300001713116251 0
7.794228777758665 0.30000024903906 0
5.629165124595664 0.6499999999827892 0
5.715767664974281 0.6999999999824763 0
7.101407408491427 0.7000015633378398 0
7.188010461533562 0.7500006753018656 0
1.299038102646425 0.6499999994644028 0
1.384809219689352 0.6985599287407982 0
9.093266695236377 0.350000084670735 0
1.90525588832523 0.6999999999958121 0
1.991858428704084 0.7499999999955554 0
3.723906850282868 0.6500023230171232 0
3.810510962589183 0.7000007925681048 0
9.179869265853817 0.3000000271088454 0
8.92005940702315 0.2500042866575925 0
6.321986379712088 0.7500016144050179 0
3.723904631478572 0.2500044832720298 0
3.806743813456572 0.2994046951445416 0
1.125833016045906 0.7499999984309982 0
5.628098331277274 0.2499999999827961 0
5.709612476167291 0.2994304124183357 0
7.534421852024974 0.750001454295627 0
2.336394245334221 0.7499999999944515 0
6.83942935622305 0.2500000028016582 0
6.919271428864709 0.2992582789138459 0
4.243492801618361 0.7499766443797831 0
1.64544826718925 0.249999999997294 0
1.732050807556614 0.299999999994997 0
8.747527792771525 0.7500108931982952 0
3.551096130511444 0.7500096027360339 0
1.648782335060994 0.7499999999960674 0
5.455960043838893 0.749999999983857 0
6.841600690177737 0.7500000004695769 0
0.261471656797708 0.2529029782908279 0
6.668395614387473 0.7500000090726686 0
9.611683769686646 0.7479246353689226 0
5.629165124596033 0.749999999982782 0
3.722479830197618 0.7475256390883551 0
5.714832071190891 0.7983795040137879 0
7.882166835665317 0.7476866297811264 0
7.967656334788157 0.6996144552077289 0
7.796294514213533 0.8142088805117812 0
6.58279311436914 0.798267905479036 0
2.686105702866258 0.7475284481265458 0
2.771519117298136 0.6995880746819287 0
2.599306521935597 0.8107806190957834 0
4.591064243311017 0.7480433372612483 0
4.676724217415236 0.6996759447729168 0
4.502410033469758 0.8142486750542188 0
9.094316105921601 0.7481824493219866 0
9.180044158163479 0.6996971059151319 0
9.004649035747919 0.814285960473014 0
3.117691453620661 0.2999271674602423 0
3.116983146068639 0.2011332087058438 0
1.385640644167691 0.2999999996659156 0
3.464067952962196 0.29994169539943 0
8.313595742343026 0.300429780970866 0
8.308300457108571 0.1860482112971094 0
5.022676070893459 0.3004698550105229 0
4.416729559297891 0.7499999999872521 0
8.660227962047948 0.299954835375424 0
6.062177826488076 0.6999999999812387 0
5.369357503455096 0.2999999999903729 0
6.408588774946947 0.700001363008941 0
7.274613087355744 0.7000005272956153 0
7.62102426173937 0.7000012278308838 0
6.581859904270908 0.3000093362896141 0
0.866025709331903 0.6999990191029269 0
8.833566082598031 0.7000111525605013 0
1.561904047228059 0.6985599289038875 0
2.07846096908222 0.6999999999953146 0
2.424871130595591 0.6999999999942048 0
5.013765215919776 0.1864343596248429 0
1.297422460290228 0.7472016211282293 0
1.38856903192884 0.8041657309847468 0
9.094316124729202 0.2518176237026916 0
9.188032036296709 0.1860626382677334 0
4.589934640052857 0.2499999999865943 0
4.685611626232736 0.1859932552941373 0
9.516035465862075 0.1866245757004892 0
9.609930085055197 0.2499264170032463 0
2.685932102592433 0.2521708673692165 0
2.772743534781173 0.202532678598221 0
6.92696134237082 0.7978489870345858 0
5.370652726459808 0.7977566079424713 0
5.284266056581028 0.7473827092691822 0
1.731281529077834 0.797705108072806 0
3.466652063699983 0.7982611897868508 0
3.370850479326142 0.7455351898006477 0
8.66275335051122 0.7976832107350053 0
8.568239721148821 0.7442176663415819 0
1.560343378165422 0.2025940082507793 0
4.158929987994108 0.7978068303092001 0
4.071637041835914 0.7504974527473769 0
6.756196261350284 0.2027020010624622 0
2.252962266873554 0.797213809472099 0
7.449840751798915 0.7993613942423835 0
5.545338830033742 0.2007366485639217 0
8.656855566763278 0.2007272263963748 0
1.042677948968041 0.7992663650661909 0
1.129144947614685 0.8438727846018081 0
6.058569574944396 0.799297251525203 0
5.971795212150676 0.8439847421323675 0
3.640970584144441 0.2006940235844453 0
3.727859655512198 0.1559757541250126 0
8.570503337697055 0.1561557456377123 0
3.463783649724141 0.2006204562684626 0
3.373655291872253 0.1558449468583267 0
6.235747344498252 0.799381594505068 0
6.325992262827434 0.8441812157555098 0
0.8655009259159036 0.7994455631792979 0
0.7748140206524621 0.8442444079763369 0
8.834043285561373 0.2005320975275525 0
8.92492045050594 0.1557439705127063 0
5.634151948765108 0.1502736575504751 0
5.378645212296502 0.18459714615279 0
5.278233573126981 0.153058998765198 0
7.282894212781241 0.8156740286637104 0
7.192941529055048 0.8406153046419474 0
2.416690077659616 0.1842985205467764 0
2.338268590215841 0.2499999999951507 0
2.506703953707341 0.1593765933055519 0
7.53743316156473 0.8500215632955117 0
2.086031306271243 0.8155653321076265 0
1.995594873389207 0.8406109888481933 0
7.609458941412706 0.1836926498212773 0
7.527955720460533 0.2538072370530932 0
7.704487201997352 0.1565991371419647 0
6.588850710055125 0.1842538092242745 0
6.497994472153305 0.1593539872365064 0
9.699473841141209 0.7927667351009268 0
9.786087062761334 0.7499999999680214 0
9.77385184770757 0.8438038307939469 0
2.339205740676652 0.8485870467133436 0
1.392315585240503 0.1833659219345733 0
1.300179120774705 0.1565432185248963 0
6.841725512831527 0.150706155851842 0
4.246642343223218 0.84762107211487 0
1.647976665285361 0.1524384707185558 0
8.749290810622036 0.847609266720835 0
9.179869280112269 0.7999999999704467 0
9.266500966832492 0.7499495176276414 0
9.262223521224557 0.85009102231558 0
9.350189983665345 0.7993492347899536 0
3.806491587099176 0.8141136251548615 0
3.897114317027338 0.7499999999890856 0
4.676537180433413 0.7999999999862543 0
4.763170893642029 0.7499459907837014 0
4.758589292298637 0.8479362001431394 0
4.847361446973783 0.7968279373676898 0
3.552081961618234 0.8476927897727822 0
2.77128129210922 0.799999999992964 0
2.85792347001895 0.7499313457741993 0
2.854728727060228 0.8479738304887038 0
2.941807504893605 0.7975280222120192 0
7.967433714814224 0.7999999999746243 0
8.054073358521533 0.7499357425131762 0
8.051900182243543 0.8479833208812139 0
8.138493429130122 0.7973703080874821 0
1.650263143846885 0.8473867217785909 0
8.139580714029769 0.2022655045561061 0
8.053859908331768 0.2503775841828433 0
8.053836664850763 0.1524843819152003 0
7.968706701687223 0.2027903959994228 0
2.945037987901849 0.1976913053776897 0
4.849742261188019 0.1999999999856141 0
9.352411882971639 0.2062918972035127 0
5.455884015559702 0.8485428776480468 0
6.842338722951489 0.8485471582671729 0
1.555649876865877 0.09627639949215394 0
8.143837388328254 0.9040475575140142 0
4.155435504592683 0.9041330300187068 0
8.65656622888571 0.9040099096664904 0
2.944819311151652 0.9029886142802878 0
3.458391606064835 0.9046046321176815 0
6.753009207659701 0.09684421856640228 0
7.958917966954346 0.09636135553206182 0
1.741581664213618 0.9037072136016057 0
5.35980280253083 0.9039235395761765 0
6.939079512543127 0.9039028131465633 0
6.6662483154154 0.8482138982845264 0
2.251666049839486 0.899999999994621 0
6.58765058859714 0.8913988377798696 0
5.631628172405739 0.8481229322805267 0
4.84974226119068 0.8999999999855894 0
5.710724542180693 0.8913058957714363 0
0.1732035951584354 0.5000003269588359 0
9.915822860641882 0.7499800426556741 0
0.08660080718015831 0.4500003814518893 0
0.173204833157637 0.60000005449441 0
0.259806531001337 0.5500013621080373 0
0.2598066450572538 0.6500015240370184 0
0.3464092457123998 0.7000015419421592 0
0.2598076211391188 0.7500000000015762 0
0.3471291362017254 0.8025134031696332 0
0.4333340338227288 0.7506175213199838 0
0.2563829615024586 0.8510127904997904 0
0.4370517902424572 0.8499994407722049 0
0.5202190822597611 0.7984318547988272 0
0.536446178095485 0.9060727932705019 0
0.5198398686547218 0.6998351556460704 0
0.1697467033868401 0.8007869922386024 0
0.1725498356843597 0.6999952115020728 0
9.352598489042276 0.6998831254138167 0
9.437448068154669 0.7469816282554029 0
9.699484522380619 0.4999999999710753 0
9.699484522378905 0.3999999999737007 0
9.786087062760581 0.5499999999681405 0
9.786087062760283 0.4499999999682193 0
9.786087062759847 0.3499999999682675 0
9.698992539556281 0.2999877361418272 0
9.786087062759623 0.2499999999683618 0
9.700100342210261 0.1852592802953788 0
9.749917851751499 0.08599921560379753 0
9.913397459621423 0.5499999999989481 0
9.612261646700826 0.3500659819774983 0
1.472243186432501 0.2499999999977012 0
3.203171957421352 0.2518554203174528 0
2.601446641061505 0.1847223551904756 0
8.833459118598654 0.7999999999715989 0
4.149999999991118 0.0866025403784904 0
4.099999999990978 0.1732050807568566 0
4.000517946945655 0.1729060439430331 0
4.048361644834364 0.2587620374066602 0
3.953937770983651 0.2576498773734384 0
4.143604338526691 0.254861254326404 0
4.004070421853824 0.34363922385943 0
3.901432004323661 0.346388442114346 0
4.198934056413716 0.1715212147483776 0
4.299822342728259 0.1720649648818813 0
4.349970390447459 0.08641252106607539 0
4.397350208595487 0.1714734780413266 0
4.350584160699531 0.2528304942223406 0
4.449462466504729 0.08596439543642954 0
4.502938190480946 0.1863775573204957 0
3.553010433810544 0.2532539806083235 0
2.858219475437635 0.2500373306582442 0
2.857513058885632 0.1510569937767098 0
2.760765642667247 0.09611168916351384 0
3.034201592058663 0.1507933451004814 0
3.130270903300311 0.09593893708575504 0
8.349999999997443 0.08660254037857586 0
8.252538202776824 0.08827514168189136 0
9.244214148643696 0.09003058972552172 0
9.147654138180787 0.08562302344880598 0
7.047780378766364 0.08828091338957796 0
7.004485261396664 0.177004589608564 0
7.099999999995453 0.1732050807569964 0
7.057739481202174 0.2541839999571375 0
7.149630063124115 0.0868822692136855 0
7.199938343850403 0.1730534923602849 0
7.299989723971533 0.1723598746329135 0
7.247141254794865 0.2549361046605066 0
7.349998287325196 0.08646167269118091 0
7.400833275832731 0.1649102702947871 0
6.149999999994134 0.08660254037852125 0
6.099999999994062 0.1723265452852351 0
6.199999999994203 0.1721801227065959 0
5.999999999994051 0.1724877332410293 0
6.044218865962675 0.2549013704903695 0
5.949999999993906 0.08648298245920751 0
5.899999999993971 0.1724946715804927 0
5.847346000700414 0.08817143820905907 0
5.799999999993978 0.1732050807573108 0
5.854405289842836 0.2532940703976457 0
6.249937650037962 0.08700228966259821 0
6.299667857207288 0.1745249112858793 0
6.254591094466797 0.2551121216224957 0
8.39939326275417 0.2494982663941583 0
5.052196451884081 0.08536793956632589 0
4.957072689973918 0.08995528825201293 0
1.47224318585696 0.3499999998962358 0
9.553621362326908 0.08704697401513135 0
9.458428316835985 0.09033706572401287 0
4.647832265036254 0.08653556908868366 0
4.742714143176393 0.09008801437409522 0
5.547943066153296 0.09668105396923758 0
7.449999999996152 0.08660254037853404 0
1.385640639190556 0.3999999987899348 0
3.551010036926973 0.3506035772787118 0
5.89034619229828 0.7922863724754301 0
8.140227728170419 0.599288010353851 0
1.206414706475283 0.1842003374359178 0
1.125833024919282 0.2499999999985951 0
2.598076211351219 0.3999999999940185 0
9.179898365425334 0.5999496337977732 0
1.905255888322874 0.399999999995949 0
1.905255888324058 0.2999999999963794 0
1.992943123950838 0.2518787472771608 0
1.903703224218998 0.185732237607011 0
1.818653347945995 0.2499999999967755 0
2.078641751622317 0.3003131245427115 0
2.165093639882662 0.2500521874201987 0
2.25167107157484 0.300008697899432 0
2.249742197122008 0.2006386486558912 0
2.162176013394593 0.1499795056788846 0
2.078460969080642 0.1999999999960903 0
5.196299258150997 0.2072780343410194 0
3.29191888812828 0.2079053163096209 0
6.754308402969809 0.8011828093767672 0
1.125832979853522 0.3499999920704658 0
1.039230131645103 0.2999999389586054 0
1.037766375031352 0.2025358000114629 0
0.9523835217100413 0.250422563442275 0
0.9502084775223745 0.1519263592303361 0
0.8629341703380932 0.2003671689164087 0
0.7874874775348756 0.1592649401311119 0
1.043574796186926 0.09613846395752561 0
1.039229264963764 0.3999997871324648 0
1.732050807567377 0.1999999999971502 0
1.81865334794277 0.3499999999960008 0
2.338269427172293 0.3500014496456596 0
3.751805101362949 0.9118297586229304 0
7.098347596757204 0.8156199000330295 0
3.95 0.9154855241176658 0
3.993361675224516 0.8184328373385271 0
7.798392542257841 0.1841407646584274 0
8.400103850338054 0.3497703149932589 0
8.489270665901156 0.2079074357934593 0
5.28300681199396 0.6495637848722413 0
9.352995047524335 0.5999805234909759 0
7.621023553300416 0.7999999999758829 0
2.857939772977964 0.3500062217707212 0
7.53334672077925 0.3506401837768288 0
3.804376142385307 0.2095206834381765 0
4.504591468253455 0.2964728752947808 0
2.650000000000009 0.9133974596215592 0
2.547548554882473 0.9090447129679802 0
2.502837645252092 0.8324591940353363 0
2.598846841446593 0.2978155370894258 0
3.463676895940661 0.4002602292763555 0
3.149999999999984 0.9133974596215584 0
3.099999999999994 0.826794919243135 0
3.201301993512891 0.8260432129379641 0
3.147916037433055 0.7446280647479637 0
3.249999999999913 0.7401923788647267 0
3.305842238039488 0.6554700065971533 0
3.307811961077525 0.8222846814121038 0
3.251518992431731 0.9125204689321973 0
1.450000000000008 0.9133974596215622 0
1.492183979591258 0.8308376503879416 0
1.347164853099029 0.9074230566771031 0
3.117626577625098 0.3998754927157551 0
2.251667026286813 0.400001691254301 0
7.102082290524742 0.4030032716248847 0
4.070330787548279 0.6502827409973881 0
5.89290484121725 0.4028005891900794 0
5.106879507551184 0.2509690266719491 0
4.330127018919242 0.6999999999875705 0
4.763139720809762 0.2499999999859325 0
0.8660682009688992 0.3011736462654917 0
5.196446246349264 0.6994910824961371 0
5.200594861936659 0.8164721684464787 0
5.110339259382247 0.7526605419632394 0
5.107988946519974 0.8413188249212523 0
5.01502440849281 0.8146270709157696 0
5.021758414785056 0.7028812706333533 0
0.6499999999994212 0.08660254037836906 0
0.5979629684768235 0.1743811614546726 0
0.4999999999995414 0.1732050807567205 0
0.5479491737898083 0.2547400728253074 0
0.6522449756167087 0.2561568347218686 0
0.6028226557788123 0.3445665690499748 0
6.754998187948301 0.600000066546832 0
5.109422259874657 0.3500624254795035 0
9.526129696918794 0.4000912870612259 0
1.732050807527274 0.3999999999896143 0
9.350200226992772 0.9034907597378203 0
9.050000000000015 0.9133974596215295 0
8.950992601309304 0.9119557462333799 0
7.85 0.9133974596215539 0
4.763138978982633 0.3500012392970606 0
0.866015802453466 0.5999979669594913 0
4.33012701891963 0.7999999999875845 0
9.00614549758599 0.2079399403667511 0
7.450042842218378 0.9035884051084965 0
7.750000000000005 0.9133974596215403 0
7.361215932164932 0.7499999999767242 0
4.549999999999998 0.9133974596215541 0
4.450000000000006 0.9133974596215647 0
6.581804703779454 0.4000024147291085 0
0.6942770012697976 0.4029765236913874 0
7.880831215980185 0.3500000719818238 0
6.754883210197247 0.700197166816353 0
7.967470852507791 0.5999358020747484 0
9.557257697810488 0.9121056902825131 0
8.44999999999999 0.9133974596215817 0
8.499999999999989 0.8267949192431301 0
8.39999999999999 0.8267949192431656 0
8.451643086398299 0.7404120117813631 0
8.518673265572458 0.6587647842804814 0
8.346833896464162 0.745247308479205 0
3.810340489717312 0.3997892320971148 0
4.849742229639693 0.6000000526933527 0
6.408592476899894 0.6000077749801587 0
6.495191657033716 0.6500019548651373 0
6.496357566650312 0.7479797745327309 0
6.407610417825477 0.7920425099993343 0
3.95049619925658 0.08452205926347092 0
5.714741800172289 0.3999050687217887 0
6.232922180057024 0.4060391293467047 0
6.312141252509164 0.3415634509734815 0
5.806870878067858 0.3390161056092494 0
7.446062368934095 0.30667296177596 0
6.926547494968213 0.4001658191070735 0
3.204293993999127 0.3499999999920574 0
4.501848435925806 0.3981790092333204 0
5.022880856574561 0.4000887186188921 0
5.196243367976839 0.5998424781394777 0
8.313693764342915 0.3999438682304431 0
5.802370205352545 0.6499999999821757 0
7.794229111242199 0.4000008270264912 0
4.416712316075972 0.6500288068410364 0
5.54256258421688 0.5999999999833765 0
6.148794299876945 0.6500241326631956 0
4.676564057445771 0.5999531674579982 0
7.274623546012229 0.6000212855344611 0
0.2409756281862135 0.0919308180932589 0
7.707626093678699 0.7499999999755267 0
0.6938789673357111 0.7923302792762301 0
1.949999999996971 0.08660254037819097 0
5.542562584217209 0.6999999999834388 0
2.24974564665729 0.09639101521793197 0
4.158469670434673 0.4009216770038875 0
6.062192609823231 0.6000256054694609 0
0.4499999999996181 0.08660254037835746 0
7.621027594384708 0.6000070039161991 0
5.455960043837358 0.2499999999834007 0
5.455960043836851 0.3499999999848252 0
0.1816167523114327 0.1852164373145058 0
1.849999999997264 0.08660254037818825 0
8.349999999999987 0.9133974596216122 0
2.857930076273814 0.6499199034045291 0
7.447600663976346 0.4023342536261635 0
5.369357503453116 0.3999999999942717 0
4.763180550210505 0.6499292145764556 0
7.014804957584412 0.6500014099012077 0
2.078460969081716 0.5999999999953965 0
7.01480577065114 0.749999999977946 0
7.361230116847801 0.6500253748599292 0
4.33012701891884 0.5999999999875922 0
8.744643224346712 0.253216249546089 0
1.901291715860405 0.8154918572806624 0
3.897050201540036 0.6501116150320352 0
0.3462960301108154 0.3012226245335399 0
0.3464101615137827 0.2000000000007521 0
2.42487113059522 0.5999999999943137 0
1.212435527179321 0.5999999932878084 0
2.771328636937852 0.5999179963432651 0
0.9526258813693947 0.6499994068735697 0
8.660041397272352 0.4001794211083665 0
9.266418140397182 0.6499099859856021 0
1.818653347947083 0.6499999999961825 0
1.559355446551634 0.5997599880901763 0
6.668395609135573 0.2499999999790962 0
4.849357453424892 0.6994505334154908 0
0.4424298577450338 0.2529276879116201 0
8.833442451324686 0.6000675206847492 0
8.054017221932039 0.6497956703260118 0
8.13980466587812 0.6986862960338154 0
8.238219211267511 0.746879943791985 0
8.920061658976824 0.7499999999711813 0
3.637235805193429 0.6000690200674563 0
6.404202032668423 0.1866538908580252 0
8.054006869156149 0.3500629395293223 0
8.74640670237112 0.3506368388016982 0
9.913397459621841 0.3499999999991206 0
9.00666419935405 0.3999999999710345 0
5.54366186266633 0.8011585902708172 0
7.707627109737235 0.6500017609916788 0
6.668408707857887 0.3500019936486758 0
1.209443068342216 0.793404507638944 0
5.801507587032988 0.7468238167676323 0
1.211667533237401 0.6984343533247733 0
9.266471809141173 0.350000021571604 0
7.967611600684706 0.3005385042996247 0
2.165063509460364 0.6499999999950905 0
9.006751151088139 0.3016291073507141 0
0.9548576307071832 0.7467663979836408 0
8.920072245265423 0.6500096767297763 0
2.512688872881642 0.6478952085479304 0
6.146489305961545 0.7467479822951479 0
1.818653347947393 0.7499999999960809 0
0.08641464670132762 0.6498629940399535 0
2.944061748134581 0.5992378295223318 0
1.4718678626337 0.6480399030783179 0
9.786087062761037 0.649999999968105 0
7.880831174433771 0.2499999999749509 0
3.985471695868815 0.7033317423364249 0
8.300000000000086 0.8267949192432199 0
3.637113123927782 0.6996093284064853 0
4.936344801568574 0.7499999999854013 0
9.525708267355654 0.6991510439835152 0
9.266471820488865 0.2499999999701275 0
2.165063509460748 0.7499999999949815 0
2.943551105606399 0.6986873624440221 0
3.636907051767454 0.7974237240946868 0
9.518111227883763 0.8123252772661275 0
3.040607380682049 0.7467574173799999 0
0.4331066435737723 0.6500991796014473 0
0.6063205960793617 0.6499906730441503 0
0.6056749666534158 0.7465903827505481 0
8.651517107713458 0.0944855793159738 0
1.048271276230447 0.9054987739265896 0
7.149885561932257 0.2536020205099776 0
6.052300802892288 0.9054677301605509 0
3.647488923636944 0.09454423303550145 0
7.014044069344953 0.3388067009541169 0
0.5162468477067509 0.403997551215636 0
3.453757637160084 0.08886361225970923 0
6.246048684485953 0.9112022218557374 0
0.8544690977167461 0.9113839729232565 0
0.7631955587337378 0.2529736486714571 0
8.845343525906648 0.08855042410256769 0
5.949999999994086 0.2563820715111867 0
3.889045814088314 0.1687342690880247 0
5.341123762235277 0.08295419734934467 0
7.357205235045699 0.2578244821681298 0
4.246548827116965 0.2667380594596628 0
6.149426197712634 0.266824169856048 0
0.08206145175029735 0.8469554451923575 0
0.1490766441812267 0.08355086318557928 0
9.906780341677404 0.1550119482315481 0
7.246146096506862 0.9151480579751147 0
5.710742266814512 0.2009923177587547 0
2.45367116846168 0.08482597934893825 0
9.847378110358939 0.9107613015231497 0
5.053281623100934 0.9149433527484672 0
2.050154784483193 0.9156639366062813 0
7.647348622516024 0.0834490588784348 0
7.499999999996198 0.1642767465631557 0
6.551376452688006 0.08404050121175421 0
1.476142309087201 0.7451697759946618 0
1.354691933090507 0.0825600875400429 0
1.246242163820779 0.08305328469323878 0
5.808587821923002 0.8511258035164166 0
2.418196640635002 0.7983914527936675 0
3.207567014733333 0.1608044811761153 0
4.095737215319819 0.3382932128210681 0
9.799999999999585 0.1612435405638665 0
6.489702398208767 0.851505109743375 0
2.514727589555091 0.7423744725739971 0
6.444966255090705 0.08357830213146306 0
3.899393515870206 0.8422858892443396 0
8.417160527293401 0.1559857938004903 0
9.099178230963121 0.8380289687189786 0
9.079330493257565 0.1558332996936899 0
0.6137034316432382 0.8390907023440219 0
7.701488173697276 0.8382502862169898 0
1.997999417870535 0.1625881659421175 0
6.915175218474691 0.1999999999782787 0
5.121543621746609 0.1556004068043942 0
7.755834364104761 0.08272027796925506 0
4.596543573536328 0.8367256666006559 0
4.595923661461063 0.1602099316827029 0
1.943845503284979 0.9169812256614367 0
0.6966140150516099 0.1706271837015441 0
5.157150677396503 0.9171867135568643 0
9.624430760422918 0.8435713181673141 0
9.605692708102106 0.1624521876332314 0
3.394864479965901 0.6525028312589483 0
2.55754002036962 0.08285345170728911 0
7.00521926039791 0.8356206306771322 0
7.142306416335273 0.9172175065751342 0
2.69337767428239 0.8352984026807198 0
2.694758393842653 0.1649661376933468 0
0.7491451167219267 0.07813527121927272 0
4.407929784866277 0.8364791067884551 0
5.293374604425496 0.8353891485386934 0
9.749999999999979 0.9289924129872482 0
6.336380062836576 0.2519441467511562 0
1.808326324908131 0.8356535846858612 0
1.809115838342267 0.1635271732953638 0
7.890902298735194 0.8359956247882924 0
7.891577150920366 0.1643891691656401 0
8.910182595728271 0.8361805613562142 0
5.249999999992784 0.07024295868098193 0
8.949999999998417 0.06965434752869377 0
0.7499999999999994 0.9304476503626051 0
3.712203766979346 0.8350894025099346 0
6.350308712798179 0.9294288557148571 0
3.349999999992881 0.06918733037158077 0
1.117048720758144 0.1652148611146532 0
3.750767990143739 0.07082067964873764 0
1.280750708394464 0.8404586661112607 0
5.948838466244778 0.927805724714956 0
8.214176768529825 0.1649419548733661 0
1.481229094617803 0.1655640495270068 0
1.151173533804154 0.9284473536152847 0
8.549046370581989 0.0704971485621136 0
8.474213144147871 0.5829006625704437 0
4.433392750028188 0.250250152729337 0
5.649999999993384 0.06811364010028143 0
8.587511860109146 0.8372206331215528 0
6.682367771670473 0.1650375156078213 0
8.214783748939166 0.8372993940965292 0
9.250000000000005 0.9324289304159864 0
9.280475761885974 0.1666786758125379 0
3.390531506348539 0.8375973947049744 0
7.549999999999985 0.9325243171923026 0
2.149999999996385 0.06742303105556689 0
2.179861907256702 0.8342403233070632 0
4.754134942164941 0.9305699168928538 0
2.345371319575073 0.9303764653110739 0
4.921130015450025 0.8339598624944924 0
4.921038531630685 0.1660447230851348 0
4.774868022871509 0.1664140004104642 0
0.2529077784829294 0.9343126856863428 0
6.84915072682559 0.9329573401042981 0
6.847345284727513 0.06828954412962472 0
2.850710123375564 0.932405828329911 0
2.85117163007174 0.06702007639782048 0
4.249450449013109 0.9325037415142028 0
5.450000000000002 0.9332149262488798 0
2.324157742764915 0.1650275102567662 0
1.650179217593365 0.9323986400233303 0
1.649620871290806 0.06748917661250388 0
8.050226676361675 0.932775118368678 0
8.050388721828377 0.06728235774129354 0
7.375455048454331 0.8349431467888997 0
8.749875447913206 0.9327682375769372 0
0.9499999999992238 0.06668968696789844 0
3.549999999999999 0.933331680544591 0
1.573796020095962 0.7985000623913197 0
9.426291976292553 0.8335521618149837 0
9.425065857118312 0.1674053437172965 0
0.2740106846361983 0.1664668041141421 0
4.085872841929443 0.8368535220070735 0
5.471463533271441 0.1653536616160317 0
8.739057029082392 0.1636018787335016 0
0.9604930291547029 0.8363614619257231 0
3.01676161516317 0.8373804720910843 0
6.140737697026054 0.8362705181857871 0
3.558809434111782 0.1637596822522552 0
0.4477952958184722 0.934220323008047 0
0.4189582562294853 0.1622595264190394 0
6.661233565876739 0.9299897052504357 0
3.044942299744918 0.06748763554166287 0
0.7042875156476978 0.3198617602380879 0
9.849742261202955 0.299999999999315 0
9.849742261190961 0.3999999999836243 0
9.849742261188997 0.499999999980936 0
9.849742261192841 0.5999999999857548 0
9.849742261203689 0.6999999999993216 0
9.849742261203897 0.7999999999994958 0
5.637824789993366 0.929942911959643 0
3.277467981278508 0.5800315005516152 0
3.969505346678176 0.4180805587484087 0
5.898233341179179 0.3194392495926975 0
8.598021235188027 0.6499999999724024 0
7.103502828400076 0.3190206265115403 0
8.304503466741975 0.6767291355203904 0
3.871639352421371 0.2499999999897377 0
5.776326182177296 0.2531875973882592 0
3.1066481532661 0.6761771662958252 0
0.07320508075681675 0.9267949192430718 0
0.07320508075714427 0.0732050807572756 0
9.926794919242944 0.07320508075698413 0
0.5070592142791613 0.3239845961448648 0
9.92730407354453 0.9273040735444488 0
7.289156721959712 0.3251897867508092 0
7.448868555384633 0.2281767610408665 0
4.315000032653049 0.3260554512051443 0
6.982143091856639 0.2538507138823886 0
6.219513199146546 0.327487140706208 0
6.078327499025979 0.3279720533446448 0
4.173612464255334 0.3289088391888044 0
9.851944661576821 0.2212157286057271 0
0.7041113711233933 0.8688033114806816 0
6.403428353786501 0.8691792911086575 0
8.996669433342735 0.1309762273102423 0
3.30301769403236 0.1316668103464063 0
5.203839356833396 0.130596653560509 0
3.80428023380621 0.1362528595369866 0
5.774989930060991 0.9342153420160844 0
5.895040995763601 0.8687695307263477 0
9.70382495669544 0.8689516456551876 0
1.197790457974113 0.8676709226340797 0
8.500154954733718 0.1321926372122991 0
6.524176192815708 0.9343285423706913 0
$EndNodes
$Elements
5 2606 1 2606
1 1 1 100
1 1 5 
2 5 6 
3 6 7 
4 7 8 
5 8 9 
6 9 10 
7 10 11 
8 11 12 
9 12 13 
10 13 14 
11 14 15 
12 15 16 
13 16 17 
14 17 18 
15 18 19 
16 19 20 
17 20 21 
18 21 22 
19 22 23 
20 23 24 
21 24 25 
22 25 26 
23 26 27 
24 27 28 
25 28 29 
26 29 30 
27 30 31 
28 31 32 
29 32 33 
30 33 34 
31 34 35 
32 35 36 
33 36 37 
34 37 38 
35 38 39 
36 39 40 
37 40 41 
38 41 42 
39 42 43 
40 43 44 
41 44 45 
42 45 46 
43 46 47 
44 47 48 
45 48 49 
46 49 50 
47 50 51 
48 51 52 
49 52 53 
50 53 54 
51 54 55 
52 55 56 
53 56 57 
54 57 58 
55 58 59 
56 59 60 
57 60 61 
58 61 62 
59 62 63 
60 63 64 
61 64 65 
62 65 66 
63 66 67 
64 67 68 
65 68 69 
66 69 70 
67 70 71 
68 71 72 
69 72 73 
70 73 74 
71 74 75 
72 75 76 
73 76 77 
74 77 78 
75 78 79 
76 79 80 
77 80 81 
78 81 82 
79 82 83 
80 83 84 
81 84 85 
82 85 86 
83 86 87 
84 87 88 
85 88 89 
86 89 90 
87 90 91 
88 91 92 
89 92 93 
90 93 94 
91 94 95 
92 95 96 
93 96 97 
94 97 98 
95 98 99 
96 99 100 
97 100 101 
98 101 102 
99 102 103 
100 103 2 
1 2 1 10
101 2 104 
102 104 105 
103 105 106 
104 106 107 
105 107 108 
106 108 109 
107 109 110 
108 110 111 
109 111 112 
110 112 3 
1 3 1 100
111 3 113 
112 113 114 
113 114 115 
114 115 116 
115 116 117 
116 117 118 
117 118 119 
118 119 120 
119 120 121 
120 121 122 
121 122 123 
122 123 124 
123 124 125 
124 125 126 
125 126 127 
126 127 128 
127 128 129 
128 129 130 
129 130 131 
130 131 132 
131 132 133 
132 133 134 
133 134 135 
134 135 136 
135 136 137 
136 137 138 
137 138 139 
138 139 140 
139 140 141 
140 141 142 
141 142 143 
142 143 144 
143 144 145 
144 145 146 
145 146 147 
146 147 148 
147 148 149 
148 149 150 
149 150 151 
150 151 152 
151 152 153 
152 153 154 
153 154 155 
154 155 156 
155 156 157 
156 157 158 
157 158 159 
158 159 160 
159 160 161 
160 161 162 
161 162 163 
162 163 164 
163 164 165 
164 165 166 
165 166 167 
166 167 168 
167 168 169 
168 169 170 
169 170 171 
170 171 172 
171 172 173 
172 173 174 
173 174 175 
174 175 176 
175 176 177 
176 177 178 
177 178 179 
178 179 180 
179 180 181 
180 181 182 
181 182 183 
182 183 184 
183 184 185 
184 185 186 
185 186 187 
186 187 188 
187 188 189 
188 189 190 
189 190 191 
190 191 192 
191 192 193 
192 193 194 
193 194 195 
194 195 196 
195 196 197 
196 197 198 
197 198 199 
198 199 200 
199 200 201 
200 201 202 
201 202 203 
202 203 204 
203 204 205 
204 205 206 
205 206 207 
206 207 208 
207 208 209 
208 209 210 
209 210 211 
210 211 4 
1 4 1 10
211 4 212 
212 212 213 
213 213 214 
214 214 215 
215 215 216 
216 216 217 
217 217 218 
218 218 219 
219 219 220 
220 220 1 
2 1 2 2386
221 1138 737 1254 
222 1136 735 1255 
223 265 740 1141 
224 278 1138 1254 
225 36 227 865 
226 733 1135 1257 
227 268 1136 1255 
228 731 1134 1258 
229 740 265 1253 
230 1010 233 1122 
231 897 704 898 
232 739 267 1149 
233 274 750 1155 
234 1042 1054 1146 
235 940 770 1113 
236 1135 244 1257 
237 742 240 1148 
238 703 899 900 
239 1134 228 1258 
240 744 224 1150 
241 894 697 895 
242 248 980 1152 
243 868 701 869 
244 748 257 1153 
245 266 206 824 
246 234 765 767 
247 1054 1042 1251 
248 750 274 1154 
249 1122 233 1249 
250 898 704 1250 
251 239 747 946 
252 267 739 1217 
253 223 920 921 
254 866 682 867 
255 271 753 1156 
256 240 742 1244 
257 964 699 965 
258 224 744 1239 
259 769 288 937 
260 676 993 994 
261 666 995 1001 
262 1045 914 1055 
263 221 759 1158 
264 673 1003 1004 
265 249 771 773 
266 713 960 961 
267 670 951 952 
268 837 284 838 
269 703 900 1231 
270 907 230 1159 
271 980 248 1229 
272 895 697 1230 
273 859 702 950 
274 1088 270 1167 
275 241 142 804 
276 1137 986 1181 
277 257 748 1226 
278 225 31 863 
279 275 941 1177 
280 258 1067 1180 
281 977 247 1182 
282 225 843 1186 
283 241 938 1188 
284 821 295 826 
285 256 758 1161 
286 701 868 1222 
287 891 270 1088 
288 159 247 803 
289 255 776 778 
290 234 767 1221 
291 699 964 966 
292 753 271 1219 
293 250 762 998 
294 258 194 802 
295 747 239 1224 
296 275 83 801 
297 865 227 1162 
298 761 272 1175 
299 920 223 1225 
300 986 1137 1263 
301 715 1014 1015 
302 763 222 934 
303 718 940 1113 
304 238 780 782 
305 35 36 865 
306 759 221 1212 
307 235 764 844 
308 960 713 962 
309 867 682 1211 
310 232 929 930 
311 249 773 1227 
312 230 907 1207 
313 1157 694 1248 
314 178 253 799 
315 715 1012 1014 
316 961 373 1185 
317 1181 982 1191 
318 770 940 1168 
319 391 851 1163 
320 206 207 824 
321 769 937 1204 
322 373 961 1271 
323 198 199 966 
324 758 256 1228 
325 252 775 1121 
326 1085 1016 1114 
327 142 143 804 
328 31 32 863 
329 266 824 1172 
330 750 751 1155 
331 670 952 953 
332 676 994 1200 
333 158 159 803 
334 859 950 1216 
335 837 838 1164 
336 15 230 932 
337 276 785 787 
338 295 821 1232 
339 1014 540 1015 
340 995 666 1198 
341 941 275 1199 
342 194 195 802 
343 126 236 797 
344 83 84 801 
345 1067 258 1196 
346 1055 914 1197 
347 938 743 1188 
348 843 746 1186 
349 246 792 1093 
350 247 977 1193 
351 237 130 795 
352 673 1004 1192 
353 177 178 799 
354 965 1157 1248 
355 272 761 1234 
356 979 977 1182 
357 221 19 794 
358 951 670 1189 
359 843 225 1190 
360 255 778 1235 
361 226 789 862 
362 1161 696 1166 
363 1067 749 1180 
364 14 15 932 
365 125 126 797 
366 938 241 1187 
367 1131 728 1258 
368 851 391 1272 
369 941 752 1177 
370 793 242 924 
371 931 1181 1191 
372 130 131 795 
373 959 957 1123 
374 19 20 794 
375 1130 726 1257 
376 170 171 796 
377 182 183 798 
378 71 72 800 
379 284 837 1184 
380 819 283 821 
381 189 190 806 
382 163 164 809 
383 754 1088 1167 
384 171 251 796 
385 724 1128 1255 
386 762 250 1237 
387 723 1127 1254 
388 17 1158 1159 
389 69 1156 1167 
390 1154 81 1177 
391 1153 192 1180 
392 161 1152 1182 
393 1150 29 1186 
394 1148 140 1188 
395 232 930 931 
396 1003 673 1178 
397 760 907 1159 
398 241 804 1187 
399 784 259 1248 
400 984 985 1081 
401 254 182 798 
402 914 1045 1174 
403 759 760 1158 
404 267 888 1149 
405 1016 1085 1276 
406 666 1001 1173 
407 225 863 1190 
408 283 819 822 
409 271 71 800 
410 993 676 1170 
411 222 763 1241 
412 901 722 1253 
413 919 920 1047 
414 496 1015 1215 
415 964 198 966 
416 199 263 966 
417 753 754 1156 
418 721 747 1000 
419 238 782 1242 
420 767 768 992 
421 752 750 1154 
422 1015 496 1274 
423 749 748 1153 
424 980 979 1152 
425 764 235 1245 
426 242 805 924 
427 746 744 1150 
428 743 742 1148 
429 884 522 1139 
430 803 247 1193 
431 789 226 864 
432 1054 293 1146 
433 929 232 1246 
434 290 1070 1251 
435 953 256 1161 
436 288 769 1168 
437 740 741 1141 
438 808 246 1093 
439 739 722 901 
440 992 768 1249 
441 791 280 1250 
442 738 737 1138 
443 713 961 1185 
444 736 735 1136 
445 190 257 806 
446 958 962 963 
447 733 734 1135 
448 731 732 1134 
449 729 728 1131 
450 727 726 1130 
451 721 1000 1244 
452 724 725 1128 
453 723 730 1127 
454 919 1047 1239 
455 272 871 1175 
456 965 699 1157 
457 258 802 1196 
458 826 295 1145 
459 228 1131 1258 
460 953 1161 1166 
461 262 790 1231 
462 248 163 809 
463 275 801 1199 
464 1015 540 1215 
465 244 1130 1257 
466 790 262 1230 
467 959 1123 1279 
468 682 866 1169 
469 702 859 1179 
470 1128 268 1255 
471 775 252 1247 
472 1151 757 1269 
473 1127 278 1254 
474 294 1151 1269 
475 280 791 1222 
476 931 1137 1181 
477 1158 760 1159 
478 1156 754 1167 
479 752 1154 1177 
480 749 1153 1180 
481 1152 979 1182 
482 746 1150 1186 
483 743 1148 1188 
484 1081 985 1283 
485 309 987 1006 
486 259 965 1248 
487 877 531 1129 
488 296 1147 1164 
489 265 901 1253 
490 785 276 1211 
491 522 884 1290 
492 958 960 962 
493 962 253 963 
494 1026 892 1195 
495 852 387 1017 
496 276 787 1243 
497 765 234 1170 
498 869 701 1171 
499 252 1121 1204 
500 819 820 822 
501 239 946 1173 
502 223 921 1174 
503 259 784 1240 
504 697 894 1176 
505 771 249 1178 
506 899 703 1179 
507 235 844 1200 
508 780 238 1198 
509 229 1140 1298 
510 934 222 1197 
511 959 541 960 
512 1010 1122 1183 
513 704 897 1184 
514 250 998 1192 
515 776 255 1189 
516 892 1026 1289 
517 540 1014 1016 
518 822 820 823 
519 809 164 1227 
520 1140 949 1298 
521 792 246 1238 
522 642 852 1017 
523 1070 290 1260 
524 1048 391 1163 
525 1028 525 1142 
526 1042 290 1251 
527 615 789 864 
528 678 615 864 
529 233 992 1249 
530 280 898 1250 
531 799 253 1223 
532 189 806 1228 
533 545 857 1216 
534 932 230 1207 
535 226 862 1236 
536 1000 240 1244 
537 242 793 1233 
538 1164 1147 1292 
539 987 309 1133 
540 1047 224 1239 
541 678 864 865 
542 960 541 961 
543 931 930 1137 
544 823 820 825 
545 822 823 824 
546 857 545 1287 
547 1006 987 1263 
548 821 283 1232 
549 900 262 1231 
550 307 825 1124 
551 825 820 1124 
552 221 794 1212 
553 1028 1142 1286 
554 797 236 1218 
555 262 895 1230 
556 825 307 1125 
557 1022 1165 1294 
558 826 291 827 
559 818 826 827 
560 827 291 1108 
561 814 816 827 
562 814 827 1108 
563 811 281 813 
564 816 818 827 
565 281 811 814 
566 301 303 815 
567 814 815 816 
568 303 526 815 
569 811 301 815 
570 299 811 813 
571 216 217 813 
572 281 216 813 
573 281 814 1108 
574 285 299 813 
575 285 218 297 
576 49 261 858 
577 285 297 298 
578 829 559 1117 
579 108 109 839 
580 828 559 829 
581 63 885 887 
582 858 261 859 
583 885 886 887 
584 856 858 859 
585 879 878 902 
586 286 110 812 
587 282 108 839 
588 267 887 888 
589 705 835 840 
590 878 78 902 
591 48 49 858 
592 814 811 815 
593 882 890 891 
594 219 293 297 
595 559 828 945 
596 882 891 892 
597 217 285 813 
598 882 880 890 
599 872 874 875 
600 52 262 900 
601 880 66 890 
602 815 526 816 
603 887 886 888 
604 870 75 874 
605 217 218 285 
606 872 870 874 
607 219 220 293 
608 512 945 1076 
609 835 705 837 
610 298 297 1054 
611 855 48 858 
612 607 842 923 
613 833 831 834 
614 88 277 866 
615 915 652 934 
616 54 894 895 
617 716 581 841 
618 97 280 868 
619 47 48 855 
620 100 284 897 
621 745 918 919 
622 945 828 1076 
623 111 294 812 
624 830 831 833 
625 850 846 853 
626 55 264 894 
627 279 95 869 
628 102 296 838 
629 299 301 811 
630 680 731 860 
631 842 607 1030 
632 893 613 942 
633 843 706 954 
634 829 1117 1122 
635 523 524 830 
636 846 845 853 
637 841 581 896 
638 930 928 975 
639 830 524 831 
640 109 110 286 
641 111 112 294 
642 912 911 935 
643 218 219 297 
644 109 286 839 
645 63 64 885 
646 621 707 861 
647 680 860 904 
648 928 384 975 
649 652 915 935 
650 297 293 1054 
651 287 845 846 
652 706 620 954 
653 619 705 840 
654 910 512 1076 
655 658 298 1054 
656 918 745 936 
657 77 78 878 
658 276 86 867 
659 280 98 898 
660 607 371 1030 
661 45 46 845 
662 79 274 902 
663 285 298 299 
664 861 707 862 
665 287 45 845 
666 592 351 936 
667 613 893 943 
668 384 926 933 
669 272 74 870 
670 789 861 862 
671 260 47 855 
672 269 65 880 
673 621 861 947 
674 1080 556 1116 
675 835 831 840 
676 261 50 899 
677 67 270 890 
678 210 211 295 
679 284 101 838 
680 899 51 900 
681 46 260 845 
682 262 53 895 
683 267 62 887 
684 265 59 901 
685 76 273 874 
686 110 111 812 
687 926 384 928 
688 818 821 826 
689 588 379 904 
690 920 917 921 
691 915 912 935 
692 287 846 847 
693 413 543 981 
694 99 897 898 
695 906 550 1084 
696 614 613 943 
697 639 999 1102 
698 911 337 935 
699 96 868 869 
700 299 300 301 
701 87 88 866 
702 100 101 284 
703 299 298 300 
704 54 55 894 
705 61 62 267 
706 67 68 270 
707 70 71 271 
708 73 74 272 
709 64 65 269 
710 87 866 867 
711 58 59 265 
712 55 56 264 
713 76 77 273 
714 79 80 274 
715 82 83 275 
716 85 86 276 
717 96 97 868 
718 102 103 296 
719 272 870 871 
720 46 47 260 
721 49 50 261 
722 52 53 262 
723 91 92 278 
724 94 95 279 
725 97 98 280 
726 88 89 277 
727 99 100 897 
728 845 260 853 
729 653 693 844 
730 51 52 900 
731 44 45 287 
732 62 63 887 
733 543 978 981 
734 745 592 936 
735 269 880 881 
736 874 273 875 
737 681 893 942 
738 683 972 989 
739 679 841 896 
740 43 44 1023 
741 890 270 891 
742 517 515 990 
743 253 179 963 
744 633 508 1092 
745 509 512 910 
746 730 614 943 
747 860 588 904 
748 566 657 1008 
749 64 269 885 
750 611 832 1111 
751 324 539 903 
752 331 329 896 
753 352 544 909 
754 507 509 910 
755 1084 550 1085 
756 326 324 903 
757 917 916 921 
758 66 67 890 
759 679 896 903 
760 53 54 895 
761 556 413 981 
762 657 924 1008 
763 488 550 906 
764 379 377 904 
765 65 66 880 
766 726 686 1106 
767 229 43 1023 
768 208 209 283 
769 337 334 991 
770 832 830 833 
771 273 77 878 
772 581 331 896 
773 613 494 942 
774 693 1082 1104 
775 888 886 889 
776 329 326 903 
777 904 377 955 
778 351 349 936 
779 390 393 970 
780 534 913 916 
781 453 451 1095 
782 620 909 954 
783 916 913 921 
784 75 76 874 
785 50 51 899 
786 1013 1011 1056 
787 952 256 953 
788 303 305 526 
789 74 75 870 
790 862 707 863 
791 101 102 838 
792 657 793 924 
793 665 1009 1083 
794 316 384 933 
795 896 329 903 
796 377 374 955 
797 187 256 952 
798 576 458 1061 
799 734 640 1022 
800 693 561 1082 
801 354 352 909 
802 371 369 1030 
803 318 316 933 
804 78 79 902 
805 338 337 911 
806 619 840 990 
807 543 976 978 
808 359 621 947 
809 95 96 869 
810 570 507 910 
811 288 174 937 
812 593 363 947 
813 861 593 947 
814 999 700 1102 
815 179 180 963 
816 651 763 934 
817 323 321 925 
818 610 727 905 
819 59 60 901 
820 641 588 728 
821 446 538 1005 
822 173 288 939 
823 548 379 588 
824 487 521 1034 
825 349 346 968 
826 679 600 759 
827 972 603 989 
828 448 446 1005 
829 1057 669 1073 
830 343 534 916 
831 524 517 990 
832 389 390 970 
833 15 16 230 
834 301 300 302 
835 847 848 849 
836 556 981 1116 
837 1100 1007 1112 
838 590 502 1090 
839 946 690 1043 
840 956 254 957 
841 539 679 903 
842 548 588 641 
843 612 611 1111 
844 601 445 1026 
845 641 728 729 
846 759 600 760 
847 369 366 967 
848 445 443 1026 
849 640 688 1022 
850 651 581 716 
851 651 716 763 
852 523 517 524 
853 560 581 651 
854 935 337 991 
855 763 716 794 
856 430 433 1035 
857 976 543 1033 
858 683 697 972 
859 834 831 835 
860 324 323 539 
861 936 349 968 
862 731 608 732 
863 611 523 830 
864 576 1061 1063 
865 656 1046 1093 
866 913 912 914 
867 560 331 581 
868 516 559 945 
869 1043 690 1094 
870 686 530 1049 
871 539 600 679 
872 615 593 789 
873 439 1039 1049 
874 621 620 706 
875 621 706 707 
876 617 592 744 
877 847 846 848 
878 528 916 917 
879 419 421 944 
880 532 607 608 
881 617 744 746 
882 539 597 600 
883 121 122 993 
884 393 582 970 
885 544 592 617 
886 958 957 959 
887 641 729 949 
888 359 620 621 
889 361 1057 1073 
890 383 363 593 
891 925 321 933 
892 534 912 913 
893 330 329 331 
894 532 371 607 
895 1039 686 1049 
896 528 343 916 
897 544 351 592 
898 343 341 534 
899 118 119 992 
900 665 567 1009 
901 383 593 615 
902 485 488 906 
903 1079 583 1095 
904 519 517 523 
905 181 254 956 
906 679 759 841 
907 516 515 517 
908 948 472 1058 
909 359 357 620 
910 919 917 920 
911 439 441 1039 
912 922 603 972 
913 450 452 988 
914 472 469 1058 
915 471 473 1051 
916 474 472 948 
917 633 1092 1102 
918 646 690 946 
919 944 976 1033 
920 1028 948 1058 
921 652 651 934 
922 489 487 1034 
923 853 260 854 
924 956 957 958 
925 332 331 560 
926 881 880 882 
927 513 516 945 
928 522 435 971 
929 328 326 329 
930 680 904 955 
931 918 936 968 
932 259 964 965 
933 988 566 1008 
934 429 430 1035 
935 973 684 998 
936 342 341 343 
937 989 415 1032 
938 1053 423 1059 
939 683 989 1032 
940 300 298 658 
941 123 235 994 
942 594 474 948 
943 918 917 919 
944 630 743 938 
945 958 959 960 
946 677 842 1030 
947 849 851 852 
948 677 615 678 
949 926 925 933 
950 372 371 532 
951 364 363 383 
952 608 607 923 
953 951 186 952 
954 816 526 817 
955 534 911 912 
956 350 349 351 
957 515 518 990 
958 358 357 359 
959 352 351 544 
960 344 343 528 
961 680 608 731 
962 1009 484 1083 
963 538 691 1005 
964 542 626 1036 
965 545 950 1031 
966 604 603 922 
967 321 318 933 
968 370 369 371 
969 786 591 1089 
970 909 544 954 
971 398 545 1031 
972 672 1040 1060 
973 360 359 947 
974 363 360 947 
975 572 676 1086 
976 357 354 909 
977 719 583 1079 
978 255 185 951 
979 251 172 939 
980 336 334 337 
981 175 252 937 
982 186 187 952 
983 871 870 872 
984 728 588 860 
985 334 332 991 
986 348 346 349 
987 341 338 911 
988 340 338 341 
989 639 738 999 
990 616 752 941 
991 362 360 363 
992 322 323 324 
993 368 366 369 
994 622 450 988 
995 967 677 1030 
996 172 173 939 
997 328 329 330 
998 625 703 974 
999 356 354 357 
1000 376 374 377 
1001 174 175 937 
1002 259 197 964 
1003 875 273 876 
1004 552 302 1069 
1005 135 239 1001 
1006 421 577 944 
1007 184 185 255 
1008 178 179 253 
1009 180 181 956 
1010 742 689 1002 
1011 374 372 955 
1012 269 881 883 
1013 513 515 516 
1014 1066 590 1090 
1015 175 176 252 
1016 435 432 971 
1017 546 502 590 
1018 518 619 990 
1019 521 681 1034 
1020 554 471 1051 
1021 639 737 738 
1022 582 717 718 
1023 685 723 1066 
1024 301 302 303 
1025 387 382 1017 
1026 134 135 1001 
1027 181 182 254 
1028 187 188 256 
1029 190 191 257 
1030 561 499 1082 
1031 171 172 251 
1032 193 194 258 
1033 196 197 259 
1034 401 573 1037 
1035 774 1080 1116 
1036 1096 643 1098 
1037 369 967 1030 
1038 320 318 321 
1039 173 174 288 
1040 322 321 323 
1041 302 300 1069 
1042 330 331 332 
1043 546 639 1102 
1044 560 651 652 
1045 531 464 969 
1046 180 956 963 
1047 415 412 1032 
1048 423 420 1059 
1049 575 1043 1094 
1050 650 973 998 
1051 582 718 970 
1052 875 876 877 
1053 518 599 619 
1054 539 323 597 
1055 185 186 951 
1056 732 608 923 
1057 251 939 940 
1058 609 905 1097 
1059 452 455 988 
1060 475 542 1036 
1061 86 87 867 
1062 378 377 379 
1063 675 570 910 
1064 744 592 745 
1065 970 718 1113 
1066 617 746 843 
1067 583 453 1095 
1068 516 517 519 
1069 470 585 1064 
1070 914 912 915 
1071 316 315 384 
1072 620 357 909 
1073 789 593 861 
1074 317 316 318 
1075 993 122 994 
1076 1040 407 1060 
1077 572 570 674 
1078 625 974 996 
1079 714 653 764 
1080 765 766 767 
1081 336 337 338 
1082 528 917 918 
1083 383 615 677 
1084 534 341 911 
1085 342 343 344 
1086 538 602 691 
1087 755 612 756 
1088 677 678 842 
1089 419 944 1033 
1090 399 1037 1065 
1091 626 1007 1036 
1092 380 379 548 
1093 532 608 680 
1094 521 618 681 
1095 9 10 231 
1096 340 341 342 
1097 350 351 352 
1098 610 726 727 
1099 595 409 996 
1100 426 551 1024 
1101 519 523 571 
1102 370 371 372 
1103 617 843 954 
1104 854 260 855 
1105 325 324 326 
1106 640 547 688 
1107 358 359 360 
1108 831 524 840 
1109 681 682 893 
1110 470 554 585 
1111 485 486 487 
1112 320 321 322 
1113 396 399 1065 
1114 368 369 370 
1115 356 357 358 
1116 513 514 515 
1117 314 315 316 
1118 530 434 1049 
1119 348 349 350 
1120 409 406 996 
1121 442 444 1019 
1122 458 459 1061 
1123 464 461 969 
1124 551 645 1024 
1125 573 684 1037 
1126 582 650 717 
1127 610 686 726 
1128 664 665 780 
1129 646 554 690 
1130 518 598 599 
1131 362 363 364 
1132 199 200 263 
1133 433 609 1035 
1134 319 318 320 
1135 509 510 511 
1136 197 198 964 
1137 577 709 710 
1138 98 99 898 
1139 400 398 1031 
1140 586 425 1053 
1141 572 674 676 
1142 510 633 638 
1143 406 405 996 
1144 876 878 879 
1145 491 489 492 
1146 974 595 996 
1147 393 558 582 
1148 511 510 1099 
1149 205 206 266 
1150 441 547 589 
1151 687 604 740 
1152 383 677 967 
1153 652 935 991 
1154 425 423 1053 
1155 437 435 522 
1156 443 440 1025 
1157 451 448 1005 
1158 452 454 455 
1159 485 487 488 
1160 521 486 591 
1161 529 494 613 
1162 509 511 512 
1163 512 513 945 
1164 518 514 598 
1165 525 1028 1058 
1166 585 554 646 
1167 577 710 944 
1168 648 583 719 
1169 616 594 750 
1170 740 604 741 
1171 630 689 742 
1172 721 646 747 
1173 793 708 804 
1174 785 786 787 
1175 314 313 315 
1176 166 167 1003 
1177 751 594 948 
1178 231 983 984 
1179 443 1025 1026 
1180 741 604 922 
1181 883 881 884 
1182 544 617 954 
1183 44 287 1023 
1184 133 134 995 
1185 521 591 618 
1186 885 883 886 
1187 577 656 709 
1188 168 250 1004 
1189 202 203 268 
1190 269 883 885 
1191 310 309 1006 
1192 747 646 946 
1193 421 420 422 
1194 476 475 477 
1195 714 764 797 
1196 117 233 1010 
1197 452 453 454 
1198 547 442 1019 
1199 434 432 435 
1200 495 494 529 
1201 503 502 546 
1202 709 792 803 
1203 976 710 977 
1204 765 675 766 
1205 449 448 450 
1206 871 872 873 
1207 995 134 1001 
1208 661 663 808 
1209 455 566 988 
1210 546 590 639 
1211 688 547 1019 
1212 396 397 398 
1213 638 700 701 
1214 422 420 423 
1215 450 448 451 
1216 684 973 1037 
1217 856 855 858 
1218 313 310 1006 
1219 401 400 402 
1220 401 569 573 
1221 538 601 602 
1222 625 702 703 
1223 629 630 938 
1224 805 659 924 
1225 122 123 994 
1226 384 315 975 
1227 410 409 457 
1228 429 428 430 
1229 656 565 1046 
1230 138 240 1000 
1231 312 313 314 
1232 750 594 751 
1233 764 653 844 
1234 500 1075 1090 
1235 528 918 968 
1236 411 410 412 
1237 431 1024 1027 
1238 644 722 739 
1239 115 116 289 
1240 123 124 235 
1241 126 127 236 
1242 129 130 237 
1243 493 492 494 
1244 507 505 508 
1245 672 569 1040 
1246 683 596 697 
1247 438 437 520 
1248 467 466 525 
1249 408 409 410 
1250 689 1041 1064 
1251 490 489 491 
1252 479 480 481 
1253 773 772 774 
1254 8 9 1050 
1255 413 412 414 
1256 506 505 507 
1257 717 762 796 
1258 144 145 242 
1259 396 398 399 
1260 401 402 569 
1261 405 403 624 
1262 457 409 595 
1263 411 412 413 
1264 413 414 543 
1265 422 424 1038 
1266 424 426 427 
1267 427 428 429 
1268 627 429 628 
1269 430 432 433 
1270 971 431 1027 
1271 439 440 441 
1272 441 442 547 
1273 444 446 447 
1274 538 445 601 
1275 455 456 458 
1276 459 461 462 
1277 466 464 531 
1278 468 469 470 
1279 470 471 554 
1280 473 474 475 
1281 476 477 478 
1282 478 479 567 
1283 481 483 484 
1284 589 547 640 
1285 585 1002 1064 
1286 596 595 790 
1287 733 640 734 
1288 671 672 771 
1289 687 1052 1053 
1290 771 772 773 
1291 787 788 801 
1292 978 980 981 
1293 159 160 247 
1294 233 118 992 
1295 433 432 434 
1296 648 719 761 
1297 405 625 996 
1298 463 461 464 
1299 475 474 542 
1300 418 417 535 
1301 626 616 941 
1302 117 118 233 
1303 120 121 234 
1304 238 133 995 
1305 404 403 405 
1306 455 458 566 
1307 771 672 772 
1308 428 426 1024 
1309 557 583 648 
1310 551 586 644 
1311 984 983 985 
1312 468 467 469 
1313 459 460 461 
1314 671 569 672 
1315 444 443 445 
1316 944 710 976 
1317 402 400 403 
1318 580 653 714 
1319 427 426 428 
1320 692 533 997 
1321 436 435 437 
1322 432 431 971 
1323 414 412 415 
1324 416 415 417 
1325 419 418 420 
1326 427 429 627 
1327 465 464 466 
1328 407 406 408 
1329 479 477 480 
1330 478 567 575 
1331 687 740 1052 
1332 455 454 456 
1333 449 623 1020 
1334 1012 1011 1013 
1335 597 323 925 
1336 327 326 328 
1337 473 472 474 
1338 499 500 501 
1339 405 624 625 
1340 451 1005 1095 
1341 501 500 502 
1342 566 576 657 
1343 449 622 623 
1344 976 977 978 
1345 430 431 432 
1346 434 435 436 
1347 457 596 683 
1348 696 555 1071 
1349 312 310 313 
1350 315 313 527 
1351 424 423 425 
1352 424 425 426 
1353 616 750 752 
1354 849 848 851 
1355 421 565 577 
1356 610 530 686 
1357 478 477 479 
1358 461 460 969 
1359 481 482 483 
1360 630 536 689 
1361 168 169 250 
1362 439 438 440 
1363 688 1019 1020 
1364 551 644 645 
1365 669 568 1073 
1366 573 673 684 
1367 462 461 463 
1368 132 133 238 
1369 138 139 240 
1370 150 151 244 
1371 156 157 246 
1372 165 166 249 
1373 398 397 545 
1374 459 456 460 
1375 487 486 521 
1376 162 163 248 
1377 642 641 949 
1378 441 440 442 
1379 458 456 459 
1380 507 508 509 
1381 315 527 975 
1382 444 445 446 
1383 414 415 416 
1384 515 514 518 
1385 322 324 325 
1386 141 142 241 
1387 147 148 243 
1388 153 154 245 
1389 411 413 556 
1390 344 528 968 
1391 442 440 443 
1392 399 398 400 
1393 535 603 604 
1394 10 11 982 
1395 372 532 955 
1396 542 594 616 
1397 442 443 444 
1398 465 466 467 
1399 471 472 473 
1400 135 136 239 
1401 364 383 967 
1402 397 395 562 
1403 404 406 407 
1404 408 410 411 
1405 416 418 419 
1406 535 417 603 
1407 419 420 421 
1408 421 422 565 
1409 551 425 586 
1410 436 438 439 
1411 447 448 449 
1412 449 450 622 
1413 473 475 476 
1414 542 474 594 
1415 484 485 906 
1416 488 489 490 
1417 494 492 942 
1418 496 497 498 
1419 498 499 561 
1420 504 505 506 
1421 506 507 570 
1422 629 536 630 
1423 577 565 656 
1424 573 569 671 
1425 575 664 666 
1426 644 586 722 
1427 618 591 785 
1428 623 622 659 
1429 625 624 702 
1430 661 628 663 
1431 667 659 805 
1432 808 663 810 
1433 755 756 757 
1434 773 774 809 
1435 782 783 795 
1436 498 561 580 
1437 430 428 431 
1438 780 665 781 
1439 664 567 665 
1440 396 395 397 
1441 481 480 482 
1442 978 979 980 
1443 527 313 1006 
1444 543 414 1033 
1445 444 447 1019 
1446 573 671 673 
1447 424 427 1038 
1448 509 508 510 
1449 446 445 538 
1450 790 595 974 
1451 404 405 406 
1452 667 805 807 
1453 422 423 424 
1454 956 958 963 
1455 462 536 629 
1456 1012 1013 1014 
1457 441 589 1039 
1458 498 497 499 
1459 454 453 557 
1460 402 403 404 
1461 488 490 550 
1462 609 610 905 
1463 630 742 743 
1464 542 616 626 
1465 452 451 453 
1466 314 316 317 
1467 317 318 319 
1468 416 417 418 
1469 484 483 485 
1470 499 497 500 
1471 408 406 409 
1472 426 425 551 
1473 469 467 1058 
1474 471 469 472 
1475 470 469 471 
1476 978 977 979 
1477 627 628 661 
1478 565 422 1038 
1479 394 395 396 
1480 496 495 497 
1481 1086 693 1104 
1482 457 595 596 
1483 249 166 1003 
1484 412 410 1032 
1485 927 929 932 
1486 473 476 1051 
1487 687 1053 1059 
1488 447 446 448 
1489 844 693 1086 
1490 548 641 642 
1491 450 451 452 
1492 557 648 649 
1493 571 523 611 
1494 702 624 950 
1495 762 650 998 
1496 623 659 667 
1497 681 618 682 
1498 717 650 762 
1499 619 599 704 
1500 628 429 1035 
1501 876 273 878 
1502 485 483 486 
1503 346 344 968 
1504 611 830 832 
1505 854 855 856 
1506 1024 645 1027 
1507 300 658 1069 
1508 624 403 1031 
1509 782 781 783 
1510 234 121 993 
1511 493 494 495 
1512 427 627 1038 
1513 436 437 438 
1514 447 449 1020 
1515 484 906 1083 
1516 12 13 232 
1517 535 604 687 
1518 950 624 1031 
1519 688 1021 1022 
1520 399 400 401 
1521 414 416 1033 
1522 433 434 530 
1523 460 456 1029 
1524 566 458 576 
1525 462 463 536 
1526 463 464 465 
1527 465 467 468 
1528 609 530 610 
1529 557 649 1029 
1530 565 1038 1046 
1531 575 567 664 
1532 657 576 708 
1533 753 602 754 
1534 709 656 792 
1535 606 533 692 
1536 1002 689 1064 
1537 854 856 857 
1538 787 786 788 
1539 674 570 675 
1540 629 938 1063 
1541 312 314 997 
1542 785 591 786 
1543 333 332 334 
1544 332 560 991 
1545 653 561 693 
1546 454 557 1029 
1547 399 401 1037 
1548 504 503 505 
1549 231 982 983 
1550 582 558 650 
1551 589 640 733 
1552 985 986 987 
1553 501 502 503 
1554 691 602 753 
1555 768 766 828 
1556 433 530 609 
1557 657 708 793 
1558 308 306 309 
1559 440 438 1025 
1560 591 486 1089 
1561 335 334 336 
1562 6 7 1042 
1563 403 400 1031 
1564 431 428 1024 
1565 1019 447 1020 
1566 557 453 583 
1567 1041 468 1064 
1568 490 491 540 
1569 493 495 496 
1570 501 503 504 
1571 510 508 633 
1572 514 511 1099 
1573 580 561 653 
1574 599 598 791 
1575 638 633 700 
1576 674 675 765 
1577 1083 906 1084 
1578 339 338 340 
1579 529 614 685 
1580 786 1089 1100 
1581 366 364 967 
1582 529 613 614 
1583 685 614 723 
1584 985 983 986 
1585 345 344 346 
1586 9 231 1050 
1587 751 948 1028 
1588 353 352 354 
1589 373 372 374 
1590 361 360 362 
1591 603 417 989 
1592 690 554 1051 
1593 488 487 489 
1594 698 1096 1098 
1595 365 364 366 
1596 650 558 973 
1597 585 646 721 
1598 314 317 997 
1599 776 669 777 
1600 394 392 395 
1601 1052 586 1053 
1602 1003 167 1004 
1603 367 366 368 
1604 347 346 348 
1605 355 354 356 
1606 768 828 829 
1607 506 570 572 
1608 491 492 493 
1609 304 302 552 
1610 416 419 1033 
1611 308 309 310 
1612 681 942 1034 
1613 319 320 549 
1614 311 310 312 
1615 778 777 779 
1616 816 817 818 
1617 325 326 327 
1618 137 138 1000 
1619 411 556 1018 
1620 303 302 304 
1621 376 377 378 
1622 407 408 1018 
1623 761 719 800 
1624 780 781 782 
1625 1060 1018 1080 
1626 533 312 997 
1627 456 454 1029 
1628 167 168 1004 
1629 513 511 514 
1630 635 537 695 
1631 695 537 1062 
1632 375 374 376 
1633 386 382 387 
1634 1011 128 1056 
1635 606 692 735 
1636 1061 629 1063 
1637 647 555 696 
1638 512 511 513 
1639 792 656 1093 
1640 393 394 558 
1641 438 520 1025 
1642 477 475 1036 
1643 1046 661 1093 
1644 311 312 533 
1645 410 457 1032 
1646 907 597 908 
1647 579 712 713 
1648 1018 556 1080 
1649 231 10 982 
1650 689 536 1041 
1651 668 568 669 
1652 407 1018 1060 
1653 394 396 1065 
1654 417 415 989 
1655 457 683 1032 
1656 482 480 1007 
1657 492 489 1034 
1658 500 497 1075 
1659 508 505 1092 
1660 639 590 737 
1661 723 614 730 
1662 390 388 391 
1663 722 586 1052 
1664 564 655 694 
1665 834 835 836 
1666 478 575 1094 
1667 420 418 1059 
1668 465 468 1041 
1669 516 519 559 
1670 769 637 770 
1671 308 310 311 
1672 27 28 224 
1673 311 533 605 
1674 606 735 736 
1675 39 40 228 
1676 330 332 333 
1677 381 385 636 
1678 605 606 1044 
1679 619 704 705 
1680 36 37 227 
1681 908 926 927 
1682 690 1051 1094 
1683 605 533 606 
1684 33 34 226 
1685 30 31 225 
1686 567 479 1009 
1687 772 672 1060 
1688 480 477 1036 
1689 1037 973 1065 
1690 21 22 222 
1691 24 25 223 
1692 23 24 1045 
1693 42 43 229 
1694 408 411 1018 
1695 767 766 768 
1696 600 597 907 
1697 322 325 1072 
1698 18 19 221 
1699 231 984 1050 
1700 303 304 305 
1701 580 714 715 
1702 571 612 660 
1703 549 320 1072 
1704 636 637 662 
1705 908 925 926 
1706 336 338 339 
1707 1007 626 1112 
1708 307 306 308 
1709 929 928 930 
1710 587 549 643 
1711 393 392 394 
1712 26 27 1047 
1713 927 928 929 
1714 342 344 345 
1715 560 652 991 
1716 1075 685 1090 
1717 358 360 361 
1718 660 612 755 
1719 622 988 1008 
1720 686 1039 1106 
1721 691 1079 1095 
1722 606 736 1044 
1723 724 643 725 
1724 320 322 1072 
1725 350 352 353 
1726 22 23 1055 
1727 386 388 389 
1728 290 8 1050 
1729 637 385 1068 
1730 362 364 365 
1731 468 470 1064 
1732 1014 1013 1016 
1733 569 402 1040 
1734 370 372 373 
1735 1035 609 1097 
1736 777 669 1057 
1737 333 334 335 
1738 1007 480 1036 
1739 908 597 925 
1740 510 638 1099 
1741 692 997 1074 
1742 418 535 1059 
1743 305 304 306 
1744 404 407 1040 
1745 319 549 587 
1746 587 643 724 
1747 236 1011 1012 
1748 636 385 637 
1749 558 394 1065 
1750 386 387 388 
1751 532 680 955 
1752 7 8 290 
1753 339 340 537 
1754 353 354 355 
1755 373 374 375 
1756 924 659 1008 
1757 662 637 769 
1758 389 388 390 
1759 345 346 347 
1760 385 386 1068 
1761 378 379 380 
1762 708 576 1063 
1763 635 695 748 
1764 390 392 393 
1765 760 600 907 
1766 305 306 307 
1767 365 366 367 
1768 347 348 555 
1769 355 356 568 
1770 631 327 632 
1771 776 777 778 
1772 778 779 798 
1773 788 1100 1112 
1774 385 382 386 
1775 585 721 1002 
1776 367 368 541 
1777 1069 658 1070 
1778 698 632 699 
1779 375 376 563 
1780 535 687 1059 
1781 572 1086 1104 
1782 685 1066 1090 
1783 688 1020 1021 
1784 691 753 1079 
1785 623 667 1021 
1786 325 327 631 
1787 325 631 1072 
1788 382 380 1017 
1789 668 669 776 
1790 927 926 928 
1791 381 382 385 
1792 774 772 1080 
1793 536 463 1041 
1794 336 339 1077 
1795 392 391 1048 
1796 659 622 1008 
1797 781 665 1083 
1798 631 632 698 
1799 552 1069 1081 
1800 402 404 1040 
1801 463 465 1041 
1802 289 116 1010 
1803 333 335 564 
1804 390 391 392 
1805 770 637 1068 
1806 973 558 1065 
1807 317 319 1074 
1808 339 537 634 
1809 1069 1070 1081 
1810 116 117 1010 
1811 575 666 1043 
1812 1038 627 1046 
1813 564 335 578 
1814 340 342 1062 
1815 997 317 1074 
1816 627 661 1046 
1817 655 578 711 
1818 784 711 802 
1819 347 555 584 
1820 564 578 655 
1821 655 711 784 
1822 386 389 1068 
1823 635 748 749 
1824 355 568 574 
1825 381 380 382 
1826 502 500 1090 
1827 328 330 1078 
1828 365 367 553 
1829 375 563 579 
1830 7 290 1042 
1831 574 568 668 
1832 574 668 670 
1833 634 635 1067 
1834 720 758 806 
1835 24 223 1045 
1836 335 336 1077 
1837 634 537 635 
1838 772 1060 1080 
1839 818 819 821 
1840 467 525 1058 
1841 712 654 775 
1842 579 563 654 
1843 222 22 1055 
1844 319 587 1074 
1845 584 555 647 
1846 579 654 712 
1847 339 634 1077 
1848 720 647 758 
1849 735 692 1103 
1850 107 108 282 
1851 380 548 1017 
1852 342 345 1062 
1853 584 647 720 
1854 643 549 1098 
1855 712 775 799 
1856 27 224 1047 
1857 23 1045 1055 
1858 127 128 1011 
1859 537 340 1062 
1860 395 392 1048 
1861 434 436 1049 
1862 529 685 1075 
1863 562 395 1048 
1864 555 348 1071 
1865 330 333 1078 
1866 376 378 1087 
1867 564 694 1078 
1868 661 808 1093 
1869 378 380 381 
1870 236 127 1011 
1871 635 749 1067 
1872 754 602 1088 
1873 568 356 1073 
1874 381 636 1087 
1875 348 350 1071 
1876 356 358 1073 
1877 1005 691 1095 
1878 942 492 1034 
1879 1020 623 1021 
1880 436 439 1049 
1881 378 381 1087 
1882 548 642 1017 
1883 848 846 850 
1884 638 701 1118 
1885 788 786 1100 
1886 692 1074 1103 
1887 563 376 1087 
1888 840 524 990 
1889 350 353 1071 
1890 1057 361 1109 
1891 663 628 1097 
1892 358 361 1073 
1893 737 590 1066 
1894 578 335 1077 
1895 333 564 1078 
1896 328 1078 1110 
1897 598 514 1099 
1898 361 362 1109 
1899 602 601 1088 
1900 636 662 1115 
1901 287 847 1023 
1902 696 1071 1105 
1903 482 1007 1100 
1904 1074 587 1103 
1905 215 216 281 
1906 725 643 1096 
1907 675 910 1076 
1908 459 462 1061 
1909 481 484 1009 
1910 1078 694 1110 
1911 1092 546 1102 
1912 628 1035 1097 
1913 497 495 1075 
1914 632 327 1110 
1915 571 611 612 
1916 1077 634 1107 
1917 105 106 292 
1918 783 781 1084 
1919 783 1084 1085 
1920 781 1083 1084 
1921 549 1072 1098 
1922 1109 553 1120 
1923 631 698 1098 
1924 347 584 1101 
1925 353 355 1105 
1926 1071 353 1105 
1927 1089 482 1100 
1928 587 724 1103 
1929 695 1062 1101 
1930 345 347 1101 
1931 1062 345 1101 
1932 495 529 1075 
1933 355 574 1105 
1934 486 483 1089 
1935 836 835 837 
1936 779 777 1120 
1937 578 1077 1107 
1938 476 478 1094 
1939 327 328 1110 
1940 1072 631 1098 
1941 389 970 1113 
1942 462 629 1061 
1943 483 482 1089 
1944 479 481 1009 
1945 365 553 1109 
1946 711 578 1107 
1947 756 612 1111 
1948 499 501 1082 
1949 828 766 1076 
1950 634 1067 1107 
1951 1057 1109 1120 
1952 1051 476 1094 
1953 362 365 1109 
1954 1101 584 1119 
1955 1115 662 1121 
1956 818 817 819 
1957 626 941 1112 
1958 571 660 1117 
1959 519 571 1117 
1960 700 633 1102 
1961 214 215 1108 
1962 1068 389 1113 
1963 819 817 820 
1964 1087 636 1115 
1965 106 107 1091 
1966 981 980 1116 
1967 129 237 1056 
1968 563 1087 1115 
1969 1013 1056 1114 
1970 128 129 1056 
1971 695 1101 1119 
1972 213 214 291 
1973 654 563 1115 
1974 770 1068 1113 
1975 589 733 1106 
1976 1082 504 1104 
1977 766 675 1076 
1978 559 519 1117 
1979 501 504 1082 
1980 1099 638 1118 
1981 748 695 1119 
1982 1039 589 1106 
1983 107 282 1091 
1984 1016 1013 1114 
1985 506 572 1104 
1986 654 1115 1121 
1987 1056 237 1114 
1988 791 598 1118 
1989 598 1099 1118 
1990 584 720 1119 
1991 292 106 1091 
1992 775 654 1121 
1993 504 506 1104 
1994 505 503 1092 
1995 503 546 1092 
1996 215 281 1108 
1997 777 1057 1120 
1998 779 1120 1123 
1999 291 214 1108 
2000 1117 660 1122 
2001 1120 553 1123 
2002 526 305 1124 
2003 817 526 1124 
2004 305 307 1124 
2005 820 817 1124 
2006 836 837 1164 
2007 923 1162 1296 
2008 307 308 1125 
2009 311 605 1125 
2010 1125 605 1126 
2011 823 825 1126 
2012 308 311 1125 
2013 825 1125 1126 
2014 1132 649 1288 
2015 90 91 1127 
2016 605 1044 1126 
2017 201 202 1128 
2018 91 278 1127 
2019 1160 905 1300 
2020 875 877 1129 
2021 873 872 1129 
2022 151 152 1130 
2023 202 268 1128 
2024 800 72 1234 
2025 873 1132 1288 
2026 40 41 1131 
2027 237 795 1220 
2028 969 460 1132 
2029 1029 649 1132 
2030 309 306 1133 
2031 304 552 1133 
2032 38 39 1134 
2033 149 150 1135 
2034 1171 999 1295 
2035 798 183 1235 
2036 872 875 1129 
2037 244 151 1130 
2038 203 204 1136 
2039 930 975 1137 
2040 228 40 1131 
2041 868 280 1222 
2042 531 877 1285 
2043 92 93 1138 
2044 883 884 1139 
2045 889 886 1139 
2046 847 849 1140 
2047 229 1023 1140 
2048 460 1029 1132 
2049 1172 1044 1293 
2050 306 304 1133 
2051 57 58 1141 
2052 39 228 1134 
2053 150 244 1135 
2054 170 796 1237 
2055 877 876 1142 
2056 1165 243 1294 
2057 891 1088 1195 
2058 1162 227 1296 
2059 850 853 1143 
2060 854 857 1143 
2061 882 892 1144 
2062 884 881 1144 
2063 291 826 1145 
2064 212 213 1145 
2065 5 6 1146 
2066 104 105 1147 
2067 245 1160 1300 
2068 1047 920 1225 
2069 271 800 1219 
2070 268 203 1136 
2071 139 140 1148 
2072 975 527 1137 
2073 645 644 1149 
2074 28 29 1150 
2075 278 92 1138 
2076 1000 747 1224 
2077 715 1015 1274 
2078 161 162 1152 
2079 232 931 1191 
2080 886 883 1139 
2081 191 192 1153 
2082 80 81 1154 
2083 767 992 1221 
2084 889 1027 1278 
2085 922 1176 1297 
2086 1023 847 1140 
2087 987 986 1263 
2088 794 20 1241 
2089 57 1141 1201 
2090 879 902 1155 
2091 69 70 1156 
2092 279 1171 1295 
2093 796 251 1252 
2094 670 953 1166 
2095 58 265 1141 
2096 795 131 1242 
2097 699 632 1157 
2098 1110 694 1157 
2099 541 959 1279 
2100 17 18 1158 
2101 266 1172 1293 
2102 276 867 1211 
2103 773 809 1227 
2104 16 17 1159 
2105 1027 645 1278 
2106 1138 93 1202 
2107 1097 905 1160 
2108 810 663 1160 
2109 647 696 1161 
2110 1136 204 1203 
2111 876 879 1142 
2112 923 842 1162 
2113 848 850 1163 
2114 125 797 1245 
2115 667 807 1165 
2116 1022 1021 1165 
2117 387 852 1272 
2118 853 854 1143 
2119 574 670 1166 
2120 696 1105 1166 
2121 68 69 1167 
2122 940 939 1168 
2123 676 674 1170 
2124 700 999 1171 
2125 881 882 1144 
2126 806 257 1226 
2127 1043 666 1173 
2128 149 1135 1205 
2129 913 914 1174 
2130 649 648 1175 
2131 14 932 1246 
2132 38 1134 1206 
2133 922 972 1176 
2134 678 865 1162 
2135 81 82 1177 
2136 673 671 1178 
2137 699 966 1209 
2138 192 193 1180 
2139 213 291 1145 
2140 6 1042 1146 
2141 105 292 1147 
2142 983 982 1181 
2143 160 161 1182 
2144 806 758 1228 
2145 540 1016 1276 
2146 660 755 1183 
2147 837 705 1184 
2148 579 713 1185 
2149 373 375 1185 
2150 1131 41 1208 
2151 283 822 1259 
2152 739 901 1217 
2153 29 30 1186 
2154 804 708 1187 
2155 1063 938 1187 
2156 254 798 1256 
2157 140 141 1188 
2158 670 668 1189 
2159 706 843 1190 
2160 863 707 1190 
2161 1130 152 1210 
2162 982 11 1191 
2163 12 232 1191 
2164 1141 741 1201 
2165 684 673 1192 
2166 1142 879 1286 
2167 709 803 1193 
2168 977 710 1193 
2169 115 289 1194 
2170 1126 1044 1172 
2171 937 252 1204 
2172 240 139 1148 
2173 802 711 1196 
2174 1107 1067 1196 
2175 914 915 1197 
2176 666 664 1198 
2177 1112 941 1199 
2178 801 788 1199 
2179 824 823 1172 
2180 1086 676 1200 
2181 248 809 1229 
2182 264 56 1201 
2183 738 1138 1202 
2184 644 739 1149 
2185 201 1128 1213 
2186 224 28 1150 
2187 1183 755 1301 
2188 736 1136 1203 
2189 94 279 1202 
2190 205 266 1203 
2191 113 114 1151 
2192 1135 734 1205 
2193 90 1127 1214 
2194 662 769 1204 
2195 1134 732 1206 
2196 1027 889 1273 
2197 243 148 1205 
2198 227 37 1206 
2199 907 908 1207 
2200 927 932 1207 
2201 729 1131 1208 
2202 42 229 1208 
2203 698 699 1209 
2204 153 245 1210 
2205 727 1130 1210 
2206 682 618 1211 
2207 841 759 1212 
2208 794 716 1212 
2209 263 200 1213 
2210 1128 725 1213 
2211 277 89 1214 
2212 493 496 1215 
2213 540 491 1215 
2214 1127 730 1214 
2215 856 859 1216 
2216 901 60 1217 
2217 61 267 1217 
2218 1079 753 1219 
2219 800 719 1219 
2220 992 119 1221 
2221 120 234 1221 
2222 1118 701 1222 
2223 239 136 1224 
2224 137 1000 1224 
2225 26 1047 1225 
2226 223 25 1225 
2227 720 806 1226 
2228 748 1119 1226 
2229 165 249 1227 
2230 256 188 1228 
2231 1116 980 1229 
2232 809 774 1229 
2233 697 596 1230 
2234 552 1081 1283 
2235 974 703 1231 
2236 210 295 1232 
2237 283 209 1232 
2238 144 242 1233 
2239 73 272 1234 
2240 162 248 1152 
2241 184 255 1235 
2242 33 226 1236 
2243 250 169 1237 
2244 246 157 1238 
2245 744 745 1239 
2246 196 259 1240 
2247 21 222 1241 
2248 132 238 1242 
2249 85 276 1243 
2250 742 1002 1244 
2251 235 124 1245 
2252 232 13 1246 
2253 252 176 1247 
2254 694 655 1248 
2255 829 1122 1249 
2256 704 599 1250 
2257 658 1054 1251 
2258 769 770 1168 
2259 807 146 1304 
2260 1052 740 1253 
2261 850 1143 1291 
2262 737 1066 1254 
2263 950 545 1216 
2264 735 1103 1255 
2265 1106 733 1257 
2266 860 731 1258 
2267 943 1169 1303 
2268 852 851 1272 
2269 290 1050 1260 
2270 155 810 1299 
2271 1176 264 1297 
2272 601 1026 1195 
2273 961 541 1271 
2274 257 191 1153 
2275 994 235 1200 
2276 541 368 1271 
2277 370 373 1271 
2278 274 80 1154 
2279 859 261 1179 
2280 391 388 1272 
2281 971 1027 1273 
2282 496 498 1274 
2283 580 715 1274 
2284 177 799 1247 
2285 1085 550 1276 
2286 490 540 1276 
2287 761 800 1234 
2288 238 995 1198 
2289 367 541 1279 
2290 1123 553 1279 
2291 4 212 1280 
2292 220 1 1281 
2293 1 5 1281 
2294 2 104 1282 
2295 103 2 1282 
2296 211 4 1280 
2297 146 147 1304 
2298 222 1055 1197 
2299 154 155 1299 
2300 466 531 1285 
2301 714 797 1218 
2302 545 397 1287 
2303 208 283 1259 
2304 778 798 1235 
2305 437 522 1290 
2306 1026 1025 1289 
2307 943 893 1169 
2308 902 274 1155 
2309 70 271 1156 
2310 112 3 1284 
2311 3 113 1284 
2312 795 783 1220 
2313 1004 250 1192 
2314 893 682 1169 
2315 1169 277 1303 
2316 796 762 1237 
2317 255 951 1189 
2318 852 642 1277 
2319 1143 562 1291 
2320 1012 715 1218 
2321 632 1110 1157 
2322 1137 527 1263 
2323 757 1151 1194 
2324 849 852 1277 
2325 18 221 1158 
2326 289 1010 1183 
2327 897 284 1184 
2328 1151 114 1194 
2329 805 242 1261 
2330 717 796 1252 
2331 884 1144 1290 
2332 1085 1114 1220 
2333 801 84 1243 
2334 763 794 1241 
2335 864 226 1262 
2336 230 16 1159 
2337 802 195 1240 
2338 782 795 1242 
2339 663 1097 1160 
2340 758 647 1161 
2341 249 1003 1178 
2342 261 899 1179 
2343 798 779 1256 
2344 712 799 1223 
2345 894 264 1176 
2346 797 764 1245 
2347 842 678 1162 
2348 1045 223 1174 
2349 851 848 1163 
2350 838 296 1164 
2351 1021 667 1165 
2352 1144 892 1289 
2353 1001 239 1173 
2354 226 34 1262 
2355 932 929 1246 
2356 289 1183 1301 
2357 158 803 1238 
2358 234 993 1170 
2359 279 869 1171 
2360 1105 574 1166 
2361 270 68 1167 
2362 939 288 1168 
2363 866 277 1169 
2364 674 765 1170 
2365 701 700 1171 
2366 940 718 1252 
2367 946 1043 1173 
2368 823 1126 1172 
2369 921 913 1174 
2370 648 761 1175 
2371 972 697 1176 
2372 82 275 1177 
2373 671 771 1178 
2374 703 702 1179 
2375 863 32 1236 
2376 193 258 1180 
2377 242 145 1261 
2378 1123 957 1256 
2379 1144 520 1290 
2380 966 263 1209 
2381 246 808 1270 
2382 804 143 1233 
2383 986 983 1181 
2384 247 160 1182 
2385 799 775 1247 
2386 1088 601 1195 
2387 1122 660 1183 
2388 705 704 1184 
2389 985 987 1283 
2390 375 579 1185 
2391 810 155 1270 
2392 962 713 1223 
2393 30 225 1186 
2394 1143 857 1287 
2395 708 1063 1187 
2396 146 807 1261 
2397 141 241 1188 
2398 713 712 1223 
2399 668 776 1189 
2400 707 706 1190 
2401 984 1081 1260 
2402 11 12 1191 
2403 998 684 1192 
2404 156 246 1270 
2405 710 709 1193 
2406 114 115 1194 
2407 520 1144 1289 
2408 892 891 1195 
2409 155 156 1270 
2410 711 1107 1196 
2411 915 934 1197 
2412 987 1133 1283 
2413 664 780 1198 
2414 788 1112 1199 
2415 844 1086 1200 
2416 787 801 1243 
2417 56 57 1201 
2418 969 1132 1275 
2419 531 969 1275 
2420 784 802 1240 
2421 145 146 1261 
2422 93 94 1202 
2423 35 865 1262 
2424 204 205 1203 
2425 1121 662 1204 
2426 715 714 1218 
2427 783 1085 1220 
2428 877 1142 1285 
2429 718 717 1252 
2430 779 1123 1256 
2431 1081 1070 1260 
2432 148 149 1205 
2433 37 38 1206 
2434 803 792 1238 
2435 908 927 1207 
2436 1129 531 1275 
2437 41 42 1208 
2438 1096 698 1209 
2439 152 153 1210 
2440 618 785 1211 
2441 716 841 1212 
2442 200 201 1213 
2443 1132 873 1275 
2444 89 90 1214 
2445 491 493 1215 
2446 857 856 1216 
2447 824 207 1259 
2448 60 61 1217 
2449 862 863 1236 
2450 236 1012 1218 
2451 253 962 1223 
2452 1165 807 1304 
2453 719 1079 1219 
2454 793 804 1233 
2455 34 35 1262 
2456 1114 237 1220 
2457 119 120 1221 
2458 791 1118 1222 
2459 136 137 1224 
2460 25 26 1225 
2461 562 1143 1287 
2462 1119 720 1226 
2463 164 165 1227 
2464 810 1160 1299 
2465 188 189 1228 
2466 774 1116 1229 
2467 596 790 1230 
2468 790 974 1231 
2469 209 210 1232 
2470 143 144 1233 
2471 72 73 1234 
2472 183 184 1235 
2473 32 33 1236 
2474 169 170 1237 
2475 157 158 1238 
2476 745 919 1239 
2477 195 196 1240 
2478 20 21 1241 
2479 131 132 1242 
2480 84 85 1243 
2481 1002 721 1244 
2482 124 125 1245 
2483 13 14 1246 
2484 176 177 1247 
2485 655 784 1248 
2486 768 829 1249 
2487 599 791 1250 
2488 1070 658 1251 
2489 251 940 1252 
2490 722 1052 1253 
2491 1209 263 1302 
2492 1066 723 1254 
2493 1103 724 1255 
2494 957 254 1256 
2495 726 1106 1257 
2496 728 860 1258 
2497 207 208 1259 
2498 822 824 1259 
2499 1140 849 1277 
2500 1050 984 1260 
2501 865 864 1262 
2502 1142 525 1285 
2503 807 805 1261 
2504 1096 1209 1302 
2505 527 1006 1263 
2506 1111 1267 1268 
2507 1267 286 1268 
2508 834 836 1264 
2509 833 834 1265 
2510 282 839 1266 
2511 834 1264 1265 
2512 756 1268 1269 
2513 839 286 1267 
2514 1266 839 1267 
2515 757 756 1269 
2516 756 1111 1268 
2517 292 1091 1264 
2518 832 833 1266 
2519 1091 282 1265 
2520 1264 1091 1265 
2521 286 812 1268 
2522 832 1266 1267 
2523 1111 832 1267 
2524 1268 812 1269 
2525 812 294 1269 
2526 1265 282 1266 
2527 833 1265 1266 
2528 808 810 1270 
2529 889 1139 1273 
2530 368 370 1271 
2531 212 1145 1280 
2532 5 1146 1281 
2533 104 1147 1282 
2534 1163 850 1291 
2535 388 387 1272 
2536 522 971 1273 
2537 498 580 1274 
2538 751 1028 1286 
2539 873 1129 1275 
2540 550 490 1276 
2541 642 949 1277 
2542 645 1149 1278 
2543 277 1214 1303 
2544 263 1213 1302 
2545 888 889 1278 
2546 1210 245 1300 
2547 294 112 1284 
2548 1208 229 1298 
2549 553 367 1279 
2550 1133 552 1283 
2551 293 220 1281 
2552 295 211 1280 
2553 296 103 1282 
2554 949 1140 1277 
2555 227 1206 1296 
2556 243 1205 1294 
2557 1203 266 1293 
2558 1202 279 1295 
2559 649 1175 1288 
2560 264 1201 1297 
2561 1194 289 1301 
2562 755 757 1301 
2563 879 1155 1286 
2564 525 466 1285 
2565 1139 522 1273 
2566 397 562 1287 
2567 1147 292 1292 
2568 741 922 1297 
2569 871 873 1288 
2570 1025 520 1289 
2571 520 437 1290 
2572 999 738 1295 
2573 1044 736 1293 
2574 562 1048 1291 
2575 734 1022 1294 
2576 732 923 1296 
2577 949 729 1298 
2578 245 154 1299 
2579 905 727 1300 
2580 725 1096 1302 
2581 730 943 1303 
2582 147 243 1304 
2583 1145 295 1280 
2584 1146 293 1281 
2585 1147 296 1282 
2586 243 1165 1304 
2587 1160 245 1299 
2588 1149 888 1278 
2589 1151 294 1284 
2590 113 1151 1284 
2591 1155 751 1286 
2592 1048 1163 1291 
2593 1175 871 1288 
2594 757 1194 1301 
2595 1264 836 1292 
2596 292 1264 1292 
2597 836 1164 1292 
2598 1201 741 1297 
2599 1214 730 1303 
2600 738 1202 1295 
2601 1213 725 1302 
2602 736 1203 1293 
2603 727 1210 1300 
2604 729 1208 1298 
2605 1206 732 1296 
2606 1205 734 1294 
$EndElements
